<svg xmlns="http://www.w3.org/2000/svg" width="256" height="256"><path fill="#1976D2" fill-opacity=".314" fill-rule="evenodd" d="M0 128.004v128.004l128.25-.254 128.25-.254.254-127.75L257.008 0H0zm.485.496c0 70.4.119 99.053.265 63.672s.146-92.98 0-128S.485 58.1.485 128.5"/><path fill="#1976D2" fill-opacity=".217" fill-rule="evenodd" d="M0 128.004v128.004l128.25-.254 128.25-.254.254-127.75L257.008 0H0zm.485.496c0 70.4.119 99.053.265 63.672s.146-92.98 0-128S.485 58.1.485 128.5m113.554-90.399c-13.767 2.112-30.233 9.315-42.011 18.377-17.115 13.17-31.861 37.837-33.49 56.022l-.538 6 1.925-8.146c8.626-36.507 33.675-61.967 68.861-69.993 9.265-2.113 27.926-2.331 36.714-.428 18.583 4.025 34.857 13.259 48 27.237 13.145 13.981 20.714 30.241 23.893 51.33 1.407 9.335 1.472 9.506.979 2.569-.738-10.368-4.488-24.356-8.886-33.139-15.248-30.453-44.323-49.256-77.986-50.435-6.05-.212-13.907.061-17.461.606m8.961 6.34c0 4.076-.414 4.369-5 3.537-3.339-.607-3.205-.917 1-2.32.825-.275.172-.536-1.45-.579-3.131-.084-2.578-1.486.95-2.407 1.1-.288.425-.444-1.5-.347-2.99.149-3.545.562-3.807 2.828-.21 1.81.37 3.128 1.823 4.146 2.579 1.806 2.464 1.883-8.649 5.799-17.942 6.321-31.807 16.44-41.098 29.994-7.061 10.3-13.28 30.593-13.261 43.268.009 6.466 1.767 17.499 3.118 19.569.848 1.3.919 1.238.413-.356-2.724-8.575-.331-35.22 4.182-46.573 8.458-21.275 31.131-41.099 49.958-43.68 6.325-.867 4.992.811-2.898 3.648-12.317 4.428-19.933 9.136-28.324 17.507-5.83 5.818-8.946 9.908-11.326 14.871C62.261 103.498 60 108.985 60 110.654c0 3.042 2.623-1.082 4.813-7.568 2.149-6.36 7.335-15.04 12.167-20.361 8.2-9.029 24.786-18.984 33.631-20.185 9.243-1.255 10.389-1.329 10.389-.668 0 .383-1.381 1.513-3.069 2.51-2.695 1.592-3.156 2.938-1.098 3.204.367.048 1.342.345 2.167.66 5.902 2.254 10.094 2.49 13.487.761 1.92-.979 3.247-1.386 2.95-.905-.298.481.157.607 1.011.28.854-.328 1.552-.836 1.552-1.129 0-1.046-3.533-3.19-5.309-3.221-.995-.018-1.538-.471-1.206-1.007.337-.546 3.992-.827 8.309-.64 17.203.749 35.303 13.007 45.945 31.115 6.378 10.854 8.399 18.097 8.787 31.5.183 6.325.41 12.625.503 14l.17 2.5.801-2.5c1.319-4.119 1.096-16.003-.451-24-4.533-23.432-18.967-41.642-40.805-51.477-4.809-2.166-8.744-4.295-8.744-4.731 0-2.798 13.023 1.832 22 7.822 27.272 18.198 39.309 52.036 29.388 82.614-1.588 4.896-.975 8.573.877 5.262 2.273-4.06 3.867-12.72 4.418-23.99.495-10.132.266-13.266-1.471-20.135-2.535-10.024-6.04-18.365-7.716-18.365-.692 0-2.924-3.373-4.961-7.495-2.641-5.345-5.329-8.957-9.369-12.589-6.698-6.022-18.374-13.128-26.416-16.076-5.348-1.961-7.511-3.84-4.419-3.84.732 0 1.959-1.173 2.726-2.607 1.282-2.394 1.204-2.763-.941-4.5-3.032-2.456-5.817-2.411-6.616.107-.861 2.712-2.308 2.515-3.682-.5-.626-1.375-1.731-2.5-2.455-2.5s-2.054 1.125-2.955 2.5C132.223 47.835 131 47.655 131 44c0-1.65-.45-3-1-3s-1.014 1.237-1.032 2.75l-.031 2.75-2.052-2.75c-2.738-3.67-3.885-3.466-3.885.691m-17.655-.29c-3.074.835-3.128.947-2.082 4.353.59 1.923 1.495 3.496 2.012 3.496s.68-.675.363-1.5c-.657-1.714 2.832-2.166 3.862-.5.34.55 1.097 1 1.681 1 .675 0 .613-.544-.17-1.487-.679-.818-.986-2.135-.682-2.927.864-2.253-1.464-3.391-4.984-2.435M124.71 46c.288 1.1.921 2 1.407 2 1.045 0 1.082-.319.276-2.418-.881-2.296-2.3-1.944-1.683.418m-20.167-.069c-1.022 1.653 1.105 2.048 3.06.569 1.835-1.389 1.825-1.437-.294-1.468-1.205-.018-2.45.387-2.766.899m41.197.956c-.324 1.238.068 2.209 1.041 2.582 1.624.624 3.419-1.234 2.87-2.969-.596-1.881-3.39-1.605-3.911.387m-52.114 1.63c-1.918 1.918-1.934 2.04-.591 4.549 1.217 2.274 5.204 2.556 6.919.489.66-.795 1.052-2.482.873-3.75-.408-2.876-4.823-3.666-7.201-1.288m61.964.384c-1.293 1.428-1.417 2.088-.501 2.654.732.452.962.337.577-.287-.747-1.208 1.695-3.574 2.676-2.593.362.362.658.133.658-.508 0-1.732-1.464-1.416-3.41.734m-60.447-.011c-1.893 1.2-.484 5.11 1.841 5.11 2.246 0 3.064-1.882 1.846-4.25-1.005-1.954-1.703-2.116-3.687-.86m-8.249 2.86c-.058.413-.024 1.986.075 3.497l.181 2.746-3.01-1.728c-1.656-.95-3.309-1.43-3.673-1.065-.761.761 2.567 6.8 3.749 6.8 1.122 0 .969-1.767-.216-2.5-.55-.34-1-1.111-1-1.714s.872-.307 1.937.657c2.51 2.271 4.228 1.161 3.488-2.254l-.583-2.689 2.057 2.5c2.442 2.968 2.698 2.056.575-2.05-1.42-2.746-3.336-3.924-3.58-2.2M157.5 52c-.34.55-.141 1 .441 1S159 52.55 159 52s-.198-1-.441-1-.719.45-1.059 1m10.167 1.667c-1.602 1.601-.508 5.205 2.083 6.862l2.75 1.759-2.283-2.494c-2.014-2.199-2.104-2.643-.763-3.756.904-.75 2.64-1.007 4.283-.634 2.623.595 2.665.55.822-.889-2.004-1.564-5.719-2.021-6.892-.848m7.799 6.371c-1.805 1.994-1.783 2.096 1.055 4.75 1.911 1.787 2.262 1.943 1.029.456-1.961-2.365-1.382-4.476.667-2.427 2.03 2.03 3.191 1.292 1.283-.817-1.437-1.588-1.51-2-.355-2 .8 0 1.995.54 2.655 1.2.893.893 1.2.902 1.2.035 0-1.164-3.059-3.235-4.779-3.235-.501 0-1.741.917-2.755 2.038M70.602 62.887c-1.726 1.907-1.724 2.078.052 4.516 1.015 1.394 2.339 2.548 2.941 2.566 1.953.056 4.575-3.742 4.235-6.137-.441-3.116-4.753-3.68-7.228-.945m1.023.398c-1.659 1.213-1.64 1.392.34 3.183 1.94 1.756 2.22 1.776 3.73.265 1.348-1.347 1.409-1.903.347-3.183-1.563-1.883-2.155-1.919-4.417-.265m111.625 2.753c-2.976 3.674-2.875 4.898.168 2.039l2.418-2.271-.569 4.238-.568 4.239 3.15-2.33c1.733-1.281 3.151-2.694 3.151-3.141 0-1.265-1.176-.963-3.127.803-1.687 1.526-1.754 1.424-1.219-1.873.735-4.526-.584-5.186-3.404-1.704M63 71.342C63 73.557 65.149 78 66.22 78c.494 0 .608-.47.253-1.044C65.534 75.438 67.906 73 70.322 73c3.195 0 .739-1.741-3.572-2.533-3.029-.557-3.75-.389-3.75.875m1.636 1.152c.316.822.984 1.241 1.485.931 1.049-.648.207-2.425-1.149-2.425-.5 0-.651.672-.336 1.494m128.082-.376c.825.825.417 1.736-1.55 3.469-1.672 1.473-2.138 2.362-1.247 2.381.782.018 2.31-.755 3.396-1.718 1.448-1.283 2.092-1.416 2.412-.5.241.688.881 1.25 1.422 1.25.542 0 .024-1.35-1.151-3s-2.646-3-3.268-3c-.835 0-.838.294-.014 1.118M56.655 78.829c-2.217 2.45-2.085 3.756.568 5.614 3.011 2.11 3.5 1.994 5.164-1.224 2.609-5.045-1.967-8.55-5.732-4.39m.255.779c-1.134 1.367-1.046 1.819.587 3.014 1.057.773 2.39 1.249 2.963 1.059 1.621-.54 1.889-3.845.388-4.796-1.894-1.201-2.421-1.104-3.938.723m139.752.214c-1.264 1.396-1.454 2.188-.646 2.688.686.424.885 1.768.494 3.349-.525 2.129-.405 2.399.619 1.391.699-.687 2.081-1.25 3.071-1.25 2.334 0 2.348-3.102.027-5.968-1.765-2.179-1.783-2.18-3.565-.21m1.353 3.206c.597 1.115 1.493 1.776 1.991 1.468 1.308-.808.04-3.496-1.648-3.496-1.125 0-1.198.431-.343 2.028M52 86.879c0 1.094 5.858 3.596 6.625 2.829.308-.308-.809-1.269-2.482-2.134C52.647 85.766 52 85.658 52 86.879m-3 3.901c0 .503 1.013 1.37 2.25 1.926 2.165.974 2.127 1.039-1 1.732-1.803.4-3.25 1.353-3.25 2.141 0 .782.115 1.421.257 1.421.141 0 1.828.435 3.75.966l3.493.966-2.361-1.966C50.841 96.885 50.249 96 50.824 96s2.275-.467 3.778-1.039c2.611-.993 2.647-1.097.815-2.365C52.739 90.743 49 89.685 49 90.78m149.611.2c2.6 1.05 3.611 3.398 2.111 4.898-.704.704-.74 1.122-.096 1.122 1.376 0 5.374-4.326 5.374-5.814 0-.757-1.719-1.163-4.75-1.123-3.643.049-4.258.263-2.639.917m-122.382.666c-1.937.815-4.229 5.883-4.229 9.35 0 3.757 3.873 8.004 7.3 8.004 2.335 0 5.732-2.744 5.668-4.579-.017-.506-.608-.163-1.312.763-1.707 2.246-6.266 3.393-6.491 1.633-.092-.725-.405-2.892-.696-4.817-.536-3.553 1.183-8.259 3.031-8.295.55-.011 1.7 1.288 2.556 2.887.855 1.6 2.204 3.057 2.996 3.24 2.726.629 3.948 2.42 3.948 5.79V109h5.392c4.981 0 5.441-.199 6.048-2.618.362-1.44.386-2.889.054-3.221-.799-.799-2.577 2.052-2.1 3.367.205.565-.812.978-2.261.917-3.816-.16-4.154-3.839-.516-5.612 1.505-.733 2.933-1.939 3.175-2.68.347-1.063.007-1.116-1.611-.25-3.235 1.732-4.181 1.314-4.181-1.844 0-3.865 1.885-4.92 4.038-2.261 1.955 2.415 2.962 1.917 2.962-1.465 0-2.185-.381-2.333-6-2.333h-6v4c0 5.4-2.746 5.615-3.19.25-.291-3.516-.528-3.762-3.81-3.945-1.925-.107-4.072.046-4.771.341M104.168 100c.282 7.786.563 9 2.079 9 1.422 0 1.753-.887 1.753-4.696v-4.696l2.978 4.696c4.463 7.038 6.022 6.333 6.022-2.722 0-4.08.273-8.13.607-9 .461-1.201-.041-1.582-2.082-1.582-2.624 0-2.675.115-2.102 4.75.636 5.144-.015 4.844-3.626-1.675-1.072-1.935-2.492-3.075-3.83-3.075-2.034 0-2.111.387-1.799 9M120 93.441c0 2.868 1.538 4.204 2.364 2.053C123.801 91.75 125 94.482 125 101.5c0 7.367.045 7.5 2.543 7.5 2.249 0 2.518-.377 2.321-3.25-.123-1.787-.133-5.5-.021-8.25l.201-5L132 95l1.956 2.5.022-3.25L134 91h-7c-6.755 0-7 .085-7 2.441m16.816 6.357c.307 8.57.38 8.802 2.748 8.802 1.337 0 2.379-.473 2.315-1.05s-.063-4.087.003-7.8c.092-5.281.445-6.75 1.618-6.75 1.777 0 2.162 7.473.44 8.537-.675.417-.438 1.109.65 1.905.94.688 2.205 2.753 2.81 4.589 1.349 4.096 5.495 5.621 9.5 3.496l2.6-1.38-3.215.078c-1.769.042-3.835-.437-4.592-1.065-.758-.629-1.643-.877-1.967-.552s-.365-.274-.089-1.329-.174-2.48-1.001-3.166c-1.323-1.098-1.271-1.478.431-3.18C150.13 99.87 151 97.907 151 96.571c0-3.993-2.497-5.571-8.821-5.573l-5.679-.003zm26.677-7.809c.336.543-.015.748-.781.454-1.801-.691-3.076 1.056-4.559 6.247-1.286 4.499-3.555 5.952-7.395 4.733-1.993-.632-2.091-.529-.878.933.751.904 2.242 1.644 3.314 1.644s2.624.675 3.449 1.5c2.098 2.098 3.165 1.872 3.537-.75.446-3.137 4.203-3.075 4.65.076.225 1.595.802 2.146 1.831 1.75.827-.317 1.837-.576 2.246-.576.408 0-.304-3.209-1.582-7.131S165 93.122 165 92.369 164.523 91 163.941 91s-.784.445-.448.989m8.319 9.405c.312 10.377.318 10.398 3 10.965 8.395 1.773 8.823 1.786 10.052.305 1.054-1.27.938-1.425-.738-.987-1.097.287-3.125-.308-4.526-1.328-2.377-1.732-2.539-2.401-2.569-10.599L177 91l-2.75-.002-2.75-.002zM202 92c0 .55.45 1 1 1s1-.45 1-1-.45-1-1-1-1 .45-1 1M73.763 98.458c-.578 3.026.159 7.542 1.231 7.542.649 0 .189-8.958-.502-9.792-.134-.161-.461.852-.729 2.25M162 97c0 .55.45 1 1 1s1-.45 1-1-.45-1-1-1-1 .45-1 1m43.228 1.039c-2.867 1.152-3.727 3.318-2.243 5.65 1.027 1.614 1.098 1.555.648-.55-.407-1.908.059-2.574 2.432-3.469 1.614-.61 2.935-1.46 2.935-1.889 0-.969-.863-.91-3.772.258m-43.59 2.461c-.347.905-.005 1.5.862 1.5s1.209-.595.862-1.5c-.317-.825-.705-1.5-.862-1.5s-.545.675-.862 1.5m-117.436 3.75c-.741 2.814-.577 3.337 1.221 3.9 3.632 1.138 6.404.808 3.077-.366-3.791-1.337-3.662-1.198-2.917-3.141.777-2.025 2.159-2.137 2.594-.21.28 1.244.579 1.244 2.264 0 1.69-1.247 1.722-1.433.25-1.433-.93 0-1.691-.45-1.691-1s-.887-1-1.971-1c-1.382 0-2.227.972-2.827 3.25M207.2 111.2c-2.815 2.815-.345 8.368 3.395 7.633 2.8-.551 3.96-3.319 2.622-6.255-1.245-2.734-4.025-3.37-6.017-1.378m-164.533.467c-.367.366-.638 1.604-.604 2.75.059 1.915.141 1.89 1.022-.312.979-2.448.776-3.633-.418-2.438m164.696 1.83c-.346.901-.167 2.099.398 2.664 1.63 1.63 4.739.531 4.739-1.675 0-2.543-4.228-3.358-5.137-.989m-158.284 1.086c.048 1.165.285 1.402.604.605.289-.722.253-1.585-.079-1.917s-.568.258-.525 1.312m68.556 2.434c-1.311 3.118-2.635 3.026-2.635-.184 0-1.166-.727-1.833-2-1.833-1.778 0-2 .667-2 6 0 6.168 1.325 7.841 2.969 3.75.693-1.724.919-1.841.968-.5.099 2.755 2.063 2.041 2.063-.75 0-1.375.45-2.5 1-2.5s1 1.8 1 4 .413 4 .918 4 1.743.259 2.75.576c1.644.516 1.661.464.16-.506-1.806-1.169-3.357-6.405-2.37-8.002 1.063-1.72 3.542.057 3.542 2.539 0 2.125.448 2.393 4 2.393 3.333 0 4-.333 4-2 0-1.1-.45-2-1-2s-1 .675-1 1.5c0 .833-.889 1.5-2 1.5-1.1 0-2-.623-2-1.383 0-.761.9-1.619 2-1.907 1.1-.287 2-1.001 2-1.585s-.675-.803-1.5-.487c-1.041.4-1.5-.069-1.5-1.531 0-2.365 1.013-2.694 2.8-.907.933.933 1.2.733 1.2-.9 0-1.733-.611-2.1-3.5-2.1-3.218 0-3.5.24-3.5 2.983 0 3.745-2.363 3.317-2.816-.51-.42-3.54-1.979-3.389-3.549.344m20.208 2.482c.219 3.52-.051 5.501-.75 5.501-.601 0-1.093-.675-1.093-1.5s-.45-1.5-1-1.5c-1.676 0-1.114 2.871.75 3.83 3.252 1.672 4.25.284 4.25-5.913 0-4.066-.391-5.917-1.25-5.918-.89-.001-1.151 1.582-.907 5.5M145 116c-3.891 3.891-1.369 10 4.129 10 3.325 0 4.871-1.76 4.871-5.545 0-5.69-5.194-8.261-9-4.455m12 3.167c0 2.841.165 4.979.367 4.75.851-.967 1.312-9.917.51-9.917-.482 0-.877 2.325-.877 5.167m-68.164 2.35c.31 6.008.561 6.637 3.187 7.995 1.581.818 3.658 1.164 4.664.777 1.587-.61 1.513-.768-.597-1.267-2.849-.674-7.022-5.782-5.571-6.82.539-.386 1.095-2.165 1.235-3.952.197-2.527-.136-3.25-1.5-3.252-1.527-.002-1.711.841-1.418 6.519m9.363-2.767a487 487 0 0 0-1.861 5.5c-.319.978-.068 1.75.57 1.75.628 0 1.412-1.35 1.742-3 .761-3.807 2.006-3.844 2.832-.084.352 1.605 1.338 3.185 2.19 3.512 1.17.449 1.375.163.834-1.167-.395-.968-1.387-3.673-2.206-6.011-.818-2.338-1.786-4.25-2.149-4.25-.364 0-1.242 1.688-1.952 3.75m48.23-.322c-.781 3.109.311 6.572 2.071 6.572.751 0 1.661-.932 2.023-2.072.915-2.883-.266-6.928-2.023-6.928-.804 0-1.736 1.093-2.071 2.428m-101.646-.16c1.542.721 2.611.738 3.296.053s-.055-1.031-2.283-1.067c-3.083-.05-3.148.016-1.013 1.014m166.967 3.481c-.963.219-1.75.773-1.75 1.231s.863.607 1.918.331c1.418-.371 2.034.11 2.364 1.844.413 2.172.456 2.146.582-.346.151-2.988-.521-3.649-3.114-3.06M37.498 132.5c.34 9.94 1.944 19.391 3.096 18.24.246-.247-.023-2.651-.598-5.344s-1.457-9.171-1.96-14.396l-.914-9.5zm3.914-7.223c-.327 1.03-.329 2.14-.003 2.465.325.325.591-.132.591-1.015 0-1.132 1.107-1.701 3.75-1.928l3.75-.323-3.746-.537c-3.064-.439-3.855-.195-4.342 1.338M92.5 124c.34.55 1.068 1 1.618 1s.722-.45.382-1-1.068-1-1.618-1-.722.45-.382 1m116.071 2.571c-1.059.775-1.7 1.633-1.425 1.908s1.366-.133 2.425-.908c1.059-.774 1.701-1.632 1.426-1.907s-1.367.133-2.426.907M44.75 131.572c-3.392 1.84-3.547 4.011-.343 4.815 1.324.333 3.237.865 4.25 1.184 1.717.54 1.723.503.093-.545-2.023-1.301-2.286-4.09-.55-5.826 1.631-1.631-.103-1.444-3.45.372m-1.185 2.323c-.305.493.119 1.153.941 1.469.907.348 1.494-.003 1.494-.895 0-1.618-1.563-1.986-2.435-.574m70.63 3.777c.392 6.003 2.805 7.217 2.805 1.411 0-2.963.412-4.083 1.5-4.083 1.111 0 1.5 1.167 1.5 4.5 0 4.775 1.233 5.802 3 2.5.855-1.599.76-2-.473-2-1.272 0-1.333-.338-.346-1.919 1.716-2.746-.517-5.081-4.858-5.081h-3.433zM130.5 134c.34.55.816 1 1.059 1s.441-.45.441-1-.477-1-1.059-1-.781.45-.441 1m-5.292 3.676c-.979.393-1.015.852-.15 1.893.967 1.166 1.354 1.162 2.541-.025 2.347-2.347 1.145-3.286-2.391-1.868m-76.584 3.123c-.317.513-1.712.716-3.1.45-2.162-.413-2.524-.118-2.524 2.053 0 4.622.901 5.664 4.34 5.023 3.933-.734 5.891-2.325 2.86-2.325-2.392 0-2.902-1.898-1.017-3.783.651-.651.921-1.446.6-1.767-.32-.321-.842-.163-1.159.349m-4.609 2.951c.009.412.434 1.412.946 2.221 1.152 1.822 2.504.682 1.694-1.428-.598-1.558-2.668-2.18-2.64-.793m166.475 4.266c-.346.559-1.117.715-1.714.346-.647-.401-.797-.206-.371.483.985 1.595 2.27 1.445 2.957-.345.652-1.701.077-2.02-.872-.484m-86.74 7.756c-2.637.565-2.429 6.817.25 7.518 1.356.354 2 .03 2-1.006 0-1.225.289-1.289 1.456-.32.801.664 1.875.95 2.387.633.511-.316 1.176.368 1.477 1.52.662 2.528 3.155 1.988 3.242-.703.09-2.756-1.648-4.892-2.655-3.263-.537.869-1.129.456-1.96-1.368-1.234-2.708-3.186-3.657-6.197-3.011m35.329.371c-.043.904-.866 1.964-1.829 2.357-1.606.656-1.586.782.25 1.537 3.021 1.242 3.229 1.159 3.739-1.507.26-1.358.126-2.255-.298-1.994-.424.262-.998-.089-1.277-.78-.322-.8-.535-.66-.585.387m11.628.87c-.286 1.094-.142 1.756.321 1.469.464-.286 1.025.951 1.247 2.749.359 2.899.423 2.794.565-.922.17-4.442-1.257-6.647-2.133-3.296M87 161.539c0 5.033.182 5.555 1.546 4.423.85-.705 1.314-1.885 1.031-2.622-.322-.84.22-1.34 1.454-1.34 2.498 0 2.673-3.518.219-4.384-.963-.34-2.312-.879-3-1.2-.922-.43-1.25.914-1.25 5.123m101.813-4.856c.721.289 1.584.253 1.916-.079s-.258-.568-1.312-.525c-1.165.048-1.402.285-.604.604m-73.563.979c-2.058.831-1.497 5.04.75 5.628 1.711.447 2 .03 2-2.884 0-3.378-.339-3.717-2.75-2.744m23.75 3.216c0 2.108.487 3.122 1.5 3.122.825 0 1.5-.845 1.5-1.878s-.675-2.437-1.5-3.122c-1.279-1.061-1.5-.785-1.5 1.878m-72 1.023C67 163.248 76.029 175 77.064 175c.491 0 3.271 2.415 6.176 5.367 6.2 6.3 16.252 11.689 27.469 14.726 4.285 1.161 8.218 2.514 8.741 3.009 1.264 1.195-6.008 1.172-10.207-.032-3.3-.947-4.253-.135-1.993 1.699 2.229 1.809 13.041 3.573 21.75 3.549 9.649-.026 20.027-2.521 30.566-7.348 4.586-2.1 6.399-3.405 5.701-4.103s-2.596-.227-5.967 1.481c-4.857 2.461-15.458 5.652-18.778 5.652-3.724 0-.558-2.336 6.013-4.437 7.518-2.403 14.948-5.918 15.956-7.549.973-1.574-.776-1.219-6.617 1.343-8.488 3.724-14.384 4.711-29.379 4.919-12.41.172-14.731-.069-20.495-2.129-12.612-4.507-26.83-15.286-34.16-25.897-2.746-3.974-4.84-5.424-4.84-3.349m124.543 2.03c-.683 1.105.894 2.299 1.818 1.375.95-.951.773-2.306-.302-2.306-.518 0-1.2.419-1.516.931M199 167.5c0 1.375.338 2.5.75 2.5s.75-1.125.75-2.5-.338-2.5-.75-2.5-.75 1.125-.75 2.5m-9.333 1.167c-.367.366-.667 1.131-.667 1.7 0 .626.466.567 1.183-.15.651-.651.951-1.416.667-1.7s-.817-.217-1.183.15m6.333 2.215c0 .55.45 1.278 1 1.618s1 .168 1-.382-.45-1.278-1-1.618-1-.168-1 .382m1 4.118c-.901.582-1.025.975-.309.985.655.008 1.469-.435 1.809-.985.767-1.242.421-1.242-1.5 0m2.989 6.75c-2.365 3.162-3.517 5.101-2.56 4.308 1.794-1.488 7.983-10.058 7.263-10.058-.222 0-2.339 2.588-4.703 5.75m-121.451 2.188c-.318.516 1.414 2.309 3.851 3.986 3.388 2.331 4.373 2.66 4.188 1.401-.23-1.566-5.309-6.31-6.768-6.32-.38-.003-.952.417-1.271.933M183 188c0 .55.477 1 1.059 1s.781-.45.441-1-.816-1-1.059-1-.441.45-.441 1m-3 1.393c0 .216.698.661 1.552.989.89.341 1.291.173.941-.393-.587-.951-2.493-1.406-2.493-.596m-2 2.548c0 .518.445 1.216.989 1.552.566.35.734-.051.393-.941-.665-1.732-1.382-2.049-1.382-.611m-7 4.941c0 .55.45 1.278 1 1.618s1 .168 1-.382-.45-1.278-1-1.618-1-.168-1 .382m12.872 1.868c-1.243 1.586-1.208 1.621.378.378 1.666-1.307 2.195-2.128 1.372-2.128-.207 0-.995.787-1.75 1.75M168 208.5c-3.575 1.872-6.15 3.425-5.721 3.451 1.063.067 12.721-5.859 12.721-6.465 0-.673.235-.773-7 3.014m-21-1.059c0 .793.408 1.693.907 2.001.498.309.671-.34.383-1.441-.611-2.335-1.29-2.63-1.29-.56m-35.655 1.102c-.326.849-.369 1.767-.096 2.04.274.273.737-.422 1.03-1.543.624-2.383-.069-2.751-.934-.497m14.67 1.552c.011 1.73.257 2.024.875 1.048.6-.946 1.067-1.021 1.544-.25 1.162 1.881 2.572 1.223 2.45-1.143-.093-1.807-.209-1.891-.588-.425-.448 1.734-.568 1.739-2.384.095-1.832-1.658-1.911-1.63-1.897.675m6.444-1.028c-.363.586-.445 1.281-.183 1.543s.743-.218 1.069-1.067c.676-1.762.1-2.072-.886-.476m6.767.512c.95.991 1.942 1.587 2.205 1.324s-.514-1.074-1.726-1.803c-2.107-1.265-2.128-1.243-.479.479M99 214c.825.533 2.175.945 3 .914.989-.036.819-.347-.5-.914-2.749-1.181-4.328-1.181-2.5 0m51.5 1c-1.261.542-1.445.859-.5.859.825 0 2.4-.386 3.5-.859 1.261-.542 1.445-.859.5-.859-.825 0-2.4.386-3.5.859m-12.231 2.693c.973.254 2.323.237 3-.037s-.119-.481-1.769-.461-2.204.244-1.231.498m-12.005 1.025c1.52.229 3.77.223 5-.014s-.014-.425-2.764-.418-3.756.202-2.236.432"/><path fill="#1976D2" fill-opacity=".233" fill-rule="evenodd" d="M0 47.793v47.792l10.25-1.28c15.984-1.997 35.107-6.179 36.25-7.928.55-.841 2.769-4.265 4.93-7.609 11.792-18.241 31.487-32.777 52.57-38.8 9.672-2.763 29.345-3.756 39.366-1.988 8.325 1.469 20.812 5.821 27.465 9.572 4.248 2.395 5.579 2.621 14.755 2.503 10.42-.135 14.743.753 15.69 3.221.396 1.032-.122 1.356-1.864 1.165-1.327-.146-2.412.145-2.412.647s.815.912 1.811.912c.997 0 2.782.904 3.968 2.008s3.295 2.103 4.688 2.219 2.533.736 2.533 1.38-.739 1.108-1.642 1.032c-2.905-.246-2.55 2.108.522 3.468 1.636.725 2.757 1.672 2.489 2.105s-.107.788.356.788c.464 0 1.646 1.358 2.626 3.018.981 1.659 2.157 2.786 2.614 2.503.458-.282 2.275.835 4.039 2.483S223.629 80 222.917 80c-.775 0-.433.803.853 2 1.18 1.1 2.422 2 2.76 2s1.206.563 1.931 1.25c.724.688 2.605 2.15 4.178 3.25 2.8 1.957 5.147 4.11 17.144 15.726l5.914 5.726.647-11.226c.356-6.174.649-30.913.651-54.976L257 0H0zm.462.707c.001 26.4.13 37.056.287 23.681.158-13.376.158-34.976 0-48S.462 22.1.462 48.5m110.607-8.476C88.536 44.773 68.335 57.671 55.507 75.5c-10.053 13.971-16.501 34.204-16.514 51.815-.006 8.447.502 13.764 3.021 31.629 1.052 7.462-.044 10.244-2.986 7.581-.927-.839-2.05-1.525-2.496-1.525s-1.409-.787-2.14-1.75c-1.076-1.418-1.336-1.465-1.368-.25-.047 1.777-4.763 4.232-5.582 2.906-.308-.498.093-.906.892-.906s1.752-.787 2.118-1.75c.534-1.403.417-1.502-.593-.5-1.712 1.7-2.859 1.571-2.859-.321 0-.865-.675-2.247-1.5-3.072-.839-.839-1.5-1.018-1.5-.405 0 .647-1.021.425-2.5-.544-1.65-1.081-2.5-1.239-2.5-.464 0 .646-.457.891-1.016.546-.559-.346-.758-1.047-.441-1.559.316-.512.098-.987-.484-1.056A20 20 0 0 1 15 155.5a20 20 0 0 0-2.059-.375c-.582-.069-.827-.5-.544-.958.283-.459-.028-.855-.691-.881s-2.067-.403-3.12-.837c-1.472-.607-1.744-.461-1.176.631.406.781.098.639-.685-.314-.782-.954-1.716-1.442-2.074-1.084s-.651.222-.651-.303c0-.524-.9-1.021-2-1.104-1.957-.147-2 .466-2 28.287C0 203.652.184 207 1.559 207c.981 0 1.281.463.808 1.25-.559.931-.341.918.857-.053 1.359-1.101 1.665-1.024 1.969.5.241 1.206-.56 2.201-2.417 3.005L0 212.903v43.105l128.25-.254 128.25-.254v-59.145c0-56.759-.077-59.231-1.905-61.25-1.432-1.583-1.556-2.115-.5-2.144.773-.022-.075-.683-1.885-1.469-4.15-1.803-6.206-3.84-6.225-6.171-.013-1.541-.164-1.591-.985-.321-.872 1.349-1.43.725-1.118-1.25.065-.412-.576-.75-1.424-.75s-2.508-.9-3.688-2-2.737-2-3.459-2c-.721 0-1.311-.702-1.311-1.559s-.419-1.3-.931-.984-1.236.082-1.609-.522c-.373-.603-1.681-.845-2.907-.538-1.233.31-3.085-.087-4.141-.887-1.809-1.369-1.814-1.448-.089-1.478 2.681-.047 1.669-3.459-1.144-3.86-1.266-.18-2.556-1.08-2.867-2-.312-.919-3.14-7.072-6.286-13.672-5.789-12.148-14.699-25.106-21.658-31.5-3.372-3.099-3.292-2.927.698 1.5 16.257 18.034 24.739 37.683 25.467 59 .341 9.969.339 9.978-.613 3-3.797-27.824-11.265-44.823-26.397-60.083-11.435-11.532-22.981-18.483-38.216-23.008-7.314-2.173-11.265-2.676-23.307-2.968-7.975-.193-16.494.069-18.931.583m3.073 2.589c-1.715 1.201-2.149 2.221-1.703 4 .426 1.698.179 2.387-.858 2.387-.969 0-1.394-.922-1.269-2.75.172-2.52-.094-2.737-3.171-2.591-4.576.217-5.293 1.237-3.949 5.616C104.423 53.286 106 54.254 106 51c0-2.318 1.262-2.594 2.89-.633 1.5 1.808.284 2.756-7.652 5.968-18.809 7.613-34.801 22.756-43.286 40.987C54.673 104.368 52 113.925 52 118.603c0 3.458-1.298 4.397-6.082 4.397-1.927 0-2.918-.509-2.918-1.5 0-.825-.45-1.5-1-1.5s-.986 2.138-.968 4.75c.026 3.967.234 4.484 1.26 3.137.675-.886 2.911-1.809 4.968-2.049 3.096-.361 3.74-.127 3.74 1.363 0 1.045-.733 1.801-1.75 1.803-2.588.005-8.25 3.74-8.25 5.441 0 1.667 7.586 4.334 8.756 3.078.409-.438.182-.998-.506-1.243-1.988-.71-1.512-4.28.57-4.28 1.517 0 1.989 1.292 2.831 7.75.556 4.262 1.314 8.425 1.685 9.25q.675 1.5-2.261 3.461c-1.614 1.078-2.854 2.428-2.755 3 .099.571-.382.927-1.07.789-.687-.137-1.25.2-1.25.75 0 1.302 4.695 1.302 5.5 0 .34-.55.141-1-.441-1S51 155.48 51 154.845c0-.691.735-.49 1.829.5 2.87 2.598 4.104 2.044 3.555-1.595-2.516-16.662-1.602-35.988 2.279-48.25 6.7-21.162 26.151-40.937 45.53-46.288 6.488-1.791 4.989-.02-2.878 3.4-9.629 4.185-16.338 8.653-23.223 15.462-11.056 10.934-19.031 27.447-19.606 40.595-.174 3.971-.589 8.081-.923 9.134-.36 1.134.012 2.43.914 3.178 1.746 1.449 1.653 1.945 1.733-9.231.028-3.987.445-7.749.926-8.359s1.752-3.659 2.824-6.775c6.769-19.674 23.567-36.587 42.282-42.57 6.933-2.216 7.664-.644 1.258 2.706-13.169 6.888-21.536 13.906-21.421 17.967.043 1.53.306 2.219.583 1.531.315-.78 2.446-1.237 5.671-1.217l5.167.034-2.361 1.966C93.265 88.594 93.123 89 94.448 89c.927 0 1.377.474 1.012 1.065-.362.586-1.851.988-3.309.894-4.83-.311-4.989-.167-4.424 4.041.436 3.252.231 4-1.095 4C85.403 99 85 98.042 85 95.125c0-3.528-.276-3.93-3.082-4.491-5.281-1.057-7.947 1.279-11.63 10.188C65.939 111.345 64 120.046 64 129.046c0 17.014 3.233 27.179 12.668 39.834 4.391 5.888 5.122 7.194 2.308 4.12-7.425-8.11-13.486-18.087-15.794-26-1.204-4.125-2.187-8.287-2.185-9.25s-.414-1.75-.924-1.75c-2.382 0-1.097 8.666 2.478 16.705 6.032 13.564 7.037 15.077 15.852 23.858 10.03 9.993 19.341 15.522 31.838 18.904 3.687.998 6.501 2.142 6.254 2.541-.71 1.148-10.374-.922-17.495-3.747-6.021-2.389-19.643-11.717-22.978-15.734-.792-.954-2.498-2.138-3.791-2.629s-2.117-1.273-1.831-1.736c.425-.688-7.36-14.418-9.164-16.162-.285-.275-.204.85.178 2.5.383 1.65 1.354 3.505 2.158 4.123.805.618 1.2 1.808.878 2.646-.679 1.769 9.129 13.607 16.1 19.435 6.128 5.123 14.463 9.427 16.812 8.681 1.354-.43 1.668-.242 1.109.662-.507.82-.376 1.012.374.548.635-.392 1.155-.285 1.155.237 0 2.687 18.346 7.249 29.247 7.273 12.64.029 31.422-6.581 42.156-14.835 2.696-2.073 5.269-4.781 5.716-6.017.693-1.912.09-1.674-4.044 1.593-7.418 5.864-23.581 13.108-29.325 13.143-3.563.022-1.579-1.677 4-3.427 6.737-2.113 13.751-5.521 17.26-8.386l2.49-2.034-2.5.272c-1.375.149-4.314 1.201-6.53 2.337s-6.567 2.803-9.668 3.704c-5.211 1.515-6.015 1.516-10.606.014-5.231-1.711-7.019-1.603-16.671 1.007-4.962 1.342-6.826 1.416-11 .436-5.642-1.324-18.109-6.662-17.344-7.426.273-.273 7.206-2.038 15.408-3.922 25.395-5.833 25.532-5.871 24.184-6.709-.7-.436-3.029-.512-5.175-.171-3.064.487-4.181.239-5.2-1.154-1.168-1.597-1.45-1.621-2.837-.234-.847.847-2.941 1.848-4.653 2.224s-3.966 1.538-5.01 2.582c-2.649 2.649-6.188 2.366-9.946-.796-2.549-2.145-4.064-2.64-7.444-2.432-3.193.196-4.4-.15-4.879-1.399-.438-1.14-.009-1.824 1.367-2.184 1.433-.375 2.004-1.363 2.004-3.467 0-1.707.42-2.683 1-2.324.55.34 1 1.716 1 3.059 0 4.201 1.74 2.663 2.466-2.18.736-4.909 2.099-4.851 2.807.121l.427 3 .15-3.309c.087-1.921.569-3.05 1.15-2.691.609.376 1-1.101 1-3.774 0-2.416.296-4.689.658-5.051 1.138-1.138 3.342 1.465 3.342 3.947 0 1.487.584 2.378 1.559 2.378.857 0 1.276.457.931 1.016-.346.559-1.047.758-1.559.441-.512-.316-.931.352-.931 1.484s.424 2.059.943 2.059c1.845 0 4.057-4.503 4.057-8.258 0-3.52.155-3.729 2.028-2.727 1.115.597 1.764 1.513 1.441 2.035s.002.957.722.965c1.041.012 1.051.18.045.818-1.632 1.036-1.184 8.162.514 8.165.688.001 1.25-.475 1.25-1.057s.437-.789.971-.459c1.261.779 2.409-3.83 1.679-6.74-.837-3.336.395-4.369 4.35-3.645 2.185.399 2.655.689 1.25.771-2.009.118-2.25.656-2.25 5.025 0 3.539.438 5.061 1.582 5.5 2.305.885 2.418.814 2.418-1.515 0-1.835.218-1.942 1.604-.792.882.733 1.996 2.363 2.475 3.623s1.71 2.291 2.734 2.291c1.511 0 1.894-.835 2.03-4.423.164-4.323-2.331-8.891-3.738-6.846-.333.484-1.376.083-2.319-.89-2.576-2.659-.204-3.315 2.967-.82l2.734 2.15.507-2.144c.278-1.18.844-2.118 1.256-2.086s1.2.059 1.75.059c.56 0 1 2.753 1 6.259 0 5.274.33 6.466 2.097 7.57 1.154.72 2.354 1.053 2.667.74s.092-.569-.492-.569c-.715 0-.777-1.225-.191-3.75.479-2.062.882-5.213.895-7 .03-4.085 2.689-4.448 3.667-.5.374 1.512 1.508 3.338 2.519 4.057 1.011.718 1.824 1.843 1.806 2.5-.017.656-.662.36-1.433-.657-1.835-2.422-3.711-1.198-2.93 1.911.415 1.655.191 2.439-.697 2.439-1.032 0-1.05.258-.083 1.225.966.966 1.767.597 3.795-1.75 2.21-2.558 2.505-3.669 2.103-7.927l-.468-4.952 1.872 2.313c1.03 1.272 1.873 3.163 1.873 4.202 0 1.084.699 1.889 1.64 1.889.902 0 2.237.787 2.968 1.75 1.166 1.536 1.332 1.185 1.36-2.878.032-4.656 1.916-7.679 3.988-6.399 1.383.855 1.337 4.228-.07 5.098-.672.414-.904 2.257-.585 4.633.427 3.19.248 3.837-.938 3.382-.823-.316-1.199-.129-.856.425 1.138 1.842 5.132 1.002 7.569-1.592 1.85-1.97 2.402-3.618 2.329-6.963-.052-2.41.273-4.155.723-3.877 1.219.753 3.061 8.307 2.318 9.508q-.644 1.041 3.065.345l3.708-.696-1.664 2.54c-1.011 1.542-1.277 2.778-.678 3.148.541.335 1.267.151 1.613-.408.345-.559.316-1.016-.066-1.016-.381 0 .401-.861 1.74-1.914 2.42-1.904 6.605-9.222 6.912-12.086.413-3.853-.129-4.444-1.833-2-.958 1.375-2.418 2.675-3.243 2.888-2.967.768-8.528-.004-9.906-1.374-1.207-1.199-1.03-1.492 1.243-2.062 1.603-.403 2.386-1.117 1.984-1.809-.366-.629.256-.337 1.382.649 1.996 1.747 2.047 1.728 2.047-.75 0-2.155-.476-2.56-3.125-2.66-1.719-.066-3.446-.071-3.839-.012s-.441-.604-.108-1.473c.374-.976-.402-2.513-2.036-4.028-1.453-1.348-2.642-3.28-2.642-4.296 0-1.121-1.356-2.488-3.458-3.486-1.901-.902-3.728-2.078-4.059-2.614-.33-.535-1.609-.973-2.842-.973s-2.781-.54-3.441-1.2c-.933-.933-1.467-.933-2.4 0-1.718 1.718-6.833 1.48-8.927-.415-1.646-1.489-1.919-1.482-3.493.092-1.12 1.12-2.624 1.524-4.373 1.174-2.434-.486-4.98.16-12.002 3.048-1.884.775-3.046.665-4.75-.451-1.24-.813-2.255-1.925-2.255-2.471 0-.553-1.078-.723-2.428-.385q-2.427.61-4.178-1.141c-1.62-1.62-1.625-1.775-.073-2.074.924-.178 1.715-1.078 1.758-2 .049-1.04.27-1.202.583-.427.727 1.8 2.116 1.538 2.649-.5q.457-1.743.573.8c.145 3.181 1.845 4.95 4.757 4.95 3.038 0 3.954-1.777 1.124-2.179-1.759-.249-2.337-1.071-2.586-3.678-.234-2.443.038-3.231 1-2.895.756.264 1.198 1.593 1.033 3.107-.273 2.514-.062 2.645 4.25 2.645 4.174 0 4.538-.201 4.538-2.5 0-2.75-1.454-3.366-2.362-1-.316.825-1.039 1.5-1.607 1.5-1.754 0-1.141-2.084 1.219-4.143l2.25-1.963-2.25.621c-1.808.498-2.25.213-2.25-1.448 0-1.137.45-2.067 1-2.067s1 .45 1 1 .675 1 1.5 1 1.5-.505 1.5-1.122c0-.81.392-.797 1.405.043 1.441 1.196 1.468 2.261.134 5.342-.933 2.156 1 4.737 3.548 4.737 2.037 0 4.12-3.129 3.854-5.789-.381-3.805.126-6.211 1.309-6.213.823-.001 1.25 1.605 1.25 4.703 0 4.086.361 4.908 2.741 6.252 3.212 1.813 5.39.886 7.759-3.302 1.335-2.359 1.333-2.949-.017-5.364-1.479-2.643-7.446-4.964-8.477-3.297-.253.409-2.27.261-4.483-.329-4.717-1.259-5.829-4.661-1.523-4.661 2.46 0 2.5-.128 2.5-8.083 0-6.019.319-7.979 1.25-7.673 1.678.55 2.185 6.527.706 8.309-.931 1.122-.84 1.554.431 2.042.887.341 1.613 1.696 1.613 3.012 0 4.933 6.181 7.972 10.986 5.401 1.019-.546 2.375-2.571 3.011-4.5 1.349-4.086 3.691-4.6 4.592-1.008.451 1.795 1.302 2.5 3.019 2.5 1.316 0 2.385-.112 2.377-.25s-1.124-3.821-2.48-8.187-2.314-8.088-2.128-8.273 1.076-.053 1.98.293c.991.381 1.699 1.878 1.785 3.774.132 2.916.194 2.854.858-.857.594-3.315.768-2.545 1.017 4.5.165 4.675.234 9.287.153 10.25-.094 1.12.557 1.75 1.808 1.75 1.075 0 3.517.745 5.426 1.656 3.242 1.546 3.644 1.543 6.066-.044 3.166-2.075 2.603-3.423-1.198-2.865-5.049.741-6.54-2.226-6.127-12.192.331-7.977.22-8.563-1.645-8.671-1.923-.112-1.925-.135-.066-.609 1.12-.285 2.447.21 3.154 1.176.671.918 1.456 1.287 1.744.821.759-1.228-7.775-10.692-13.294-14.744-2.598-1.907-8.507-5.532-13.131-8.055-6.428-3.507-7.583-4.426-4.907-3.906 14.504 2.821 33.783 20.562 40.259 37.046 3.623 9.225 4.72 16.127 4.835 30.429.089 11.138.366 13.903 1.239 12.397 1.836-3.167 2.044-23.927.322-32.096-4.219-20.014-17.225-37.018-36.334-47.506-8.816-4.838-10.318-6.588-3.4-3.959 20.273 7.703 35.807 25.668 42.217 48.823 2.944 10.634 2.886 24.786-.147 35.799-3.154 11.454-3.339 12.5-2.218 12.5 1.606 0 4.972-8.095 6.27-15.08 1.589-8.546 1.626-24.05.075-31.151-1.908-8.737-5.675-17.522-9.529-22.226-1.911-2.332-3.765-5.396-4.119-6.808-.355-1.413-3.519-5.418-7.033-8.902-3.513-3.483-6.398-6.915-6.412-7.627s-.587-1.18-1.275-1.04c-1.535.312-5.75-1.93-5.75-3.058 0-.451 1.349-.773 2.998-.714 1.648.058 2.998.599 3 1.201.003 1.467 3.328 4.405 4.986 4.405.94 0 .799-.582-.484-2-.995-1.1-1.317-2-.714-2s1.379.457 1.724 1.016c.346.559 1.057.752 1.581.428.523-.324-.07-1.494-1.32-2.6-2.049-1.815-2.075-1.945-.271-1.332 1.1.374 2.563.91 3.25 1.191 2.536 1.037 1.151-1.33-1.796-3.071-2.529-1.494-3.313-1.579-4.611-.502-3.591 2.98-8.996 1.567-6.324-1.653.902-1.087 1.672-1.178 3.172-.375 2.966 1.588 3.653.004.948-2.188-2.314-1.877-7.425-2.509-10.557-1.307-.87.334-1.582 1.684-1.582 3S161.522 58 160.937 58c-.584 0-.983-.788-.885-1.75s.126-3.437.063-5.5c-.091-2.961-.51-3.75-1.993-3.75-1.032 0-2.437.675-3.122 1.5-1.831 2.207-3 1.831-3-.965 0-3.98-3.684-5.246-17.25-5.925-5.676-.285-6.755-.082-6.78 1.276-.027 1.401-.165 1.383-1.05-.136-1.643-2.82-4.92-2.239-4.92.872 0 2.041-.289 2.383-1.302 1.542-.716-.594-2.362-.803-3.656-.465-1.641.429-2.138.265-1.639-.541.393-.637 1.588-1.158 2.656-1.158S120 42.55 120 42c0-1.533-3.285-1.189-5.858.613M105.5 46c-.34.55.084 1 .941 1S108 46.55 108 46s-.423-1-.941-1-1.219.45-1.559 1m-10.607 1.361c-3.068 1.524-3.531 4.752-1.009 7.034 3.637 3.291 9.47-.997 7.179-5.277-1.391-2.6-3.35-3.157-6.17-1.757m.274 1.938c-1.584 1.908 1.131 5.76 2.859 4.057 1.359-1.338.964-4.527-.626-5.056-.605-.202-1.61.248-2.233.999m-8.102 1.661c-.807.499-1.141 1.862-.841 3.434.582 3.043.115 3.223-2.419.93-1.437-1.301-2.12-1.409-3.048-.481s-.829 1.802.444 3.9c2.178 3.59 4.253 4.299 3.292 1.125-.586-1.934-.477-2.139.595-1.118 2.046 1.949 3.91 1.474 3.927-1 .012-1.777.211-1.941.946-.779 1.586 2.508 2.378.261 1.043-2.96-1.507-3.64-2.164-4.148-3.939-3.051M155.5 54c.34.55 1.041 1 1.559 1s.941-.45.941-1-.702-1-1.559-1-1.281.45-.941 1m81.313 1.683c.721.289 1.584.253 1.916-.079s-.258-.568-1.312-.525c-1.165.048-1.402.285-.604.604m-4.48 1.773c0 .801.404 1.207.897.902s1.872.278 3.066 1.294c1.435 1.222 1.755 1.309.945.256-.673-.876-.89-1.96-.482-2.41.407-.45.21-.514-.44-.142-.649.372-1.463.219-1.809-.34-.922-1.491-2.177-1.238-2.177.44M241.5 60c.34.55.816 1 1.059 1s.441-.45.441-1-.477-1-1.059-1-.781.45-.441 1M70.529 62.5l-2.972 2.428 2.913 3.04 2.912 3.04 2.809-2.691c3.287-3.15 3.472-4.407.98-6.662-2.378-2.152-3.084-2.062-6.642.845M211 61c0 .55.45 1 1 1s1-.45 1-1-.45-1-1-1-1 .45-1 1m9 .062c0 .516.9.938 2 .938s2-.354 2-.787-.9-.855-2-.938-2 .271-2 .787M71.909 63.61c-.997 1.201-.924 1.803.377 3.104s1.903 1.374 3.104.377c1.651-1.37 1.193-3.653-.894-4.454-.742-.285-1.907.153-2.587.973m110.684 2.293c-3.231 3.372-2.675 6.375.631 3.412 1.999-1.791 2.017-1.773 1.321 1.435-.835 3.855 1.056 4.453 3.955 1.25 2.21-2.442 3.09-2.511 3.935-.308.448 1.168-.304 2.437-2.431 4.102-2.339 1.83-2.819 2.724-1.995 3.716.867 1.046 1.576.814 3.554-1.164 1.688-1.688 3.099-2.271 4.454-1.841 2.984.947 2.405-.791-1.795-5.386-3.605-3.943-3.86-4.053-5.538-2.376-1.677 1.676-1.745 1.601-1.471-1.634.375-4.435-1.146-4.832-4.62-1.206m57.22-2.22c.721.289 1.584.253 1.916-.079s-.258-.568-1.312-.525c-1.165.048-1.402.285-.604.604M244 66c0 .55.45 1 1 1s1-.45 1-1-.45-1-1-1-1 .45-1 1m9 1.941c0 .518.445 1.216.989 1.552.566.35.734-.051.393-.941-.665-1.732-1.382-2.049-1.382-.611M62.588 69.858c-.32.517.265 2.828 1.298 5.136 1.147 2.562 2.158 3.744 2.596 3.034.395-.638.452-1.427.127-1.753-.974-.973 1.495-3.275 3.513-3.275 2.85 0 2.244-1.696-.872-2.439-1.513-.361-3.5-.878-4.416-1.149s-1.927-.071-2.246.446M65 73.059c0 .582.45.781 1 .441s1-.816 1-1.059S66.55 72 66 72s-1 .477-1 1.059m-8.573 5.615c-2.97 3.204-2.843 3.827 1.317 6.461l3.209 2.032 1.698-3.562c1.614-3.385 1.608-3.661-.131-5.583-2.384-2.634-3.122-2.555-6.093.652m.609 1.259c-.847 1.582-.654 2.053 1.065 2.599 2.83.898 4.634-.941 2.934-2.99-1.699-2.047-2.749-1.944-3.999.391m138.354.586c-1.386 1.386-2.94 2.259-3.455 1.941-.514-.318-.935-.128-.935.422 0 1.736 2.029 2.339 3.568 1.062 2.044-1.697 2.834-.563 1.432 2.056-1.451 2.712-.291 4.118 1.442 1.748.703-.961 1.99-1.748 2.859-1.748 2.496 0 2.91-1.692 1.214-4.971-1.905-3.684-2.871-3.764-6.125-.51m2.61 1.3c0 1.208 1.897 2.617 2.591 1.924.251-.252-.229-1.027-1.067-1.723-.95-.789-1.524-.865-1.524-.201M51.492 86.014c-.822 1.329-.859 1.291 3.208 3.359 3.881 1.973 4.3 2.001 4.3.288 0-.737-1.237-1.96-2.75-2.718-1.513-.759-3.046-1.53-3.408-1.714s-.97.169-1.35.785m45.744.15c-1.54 1.54 2.246 4.972 4.522 4.099 1.382-.531 1.346-.7-.265-1.265-1.403-.493-1.543-.849-.57-1.45 1.044-.646 1.031-.962-.066-1.658-1.796-1.138-2.243-1.104-3.621.274M201.5 89.443c-3.133.687-4.533 1.391-3.75 1.886.688.434 1.257.425 1.265-.02s.44-.138.959.683c.518.82.688 2.508.376 3.75-.83 3.308.724 2.735 4.314-1.59 4.086-4.924 3.282-6.121-3.164-4.709M49 90.95c0 .523.788 1.409 1.75 1.97 1.598.931 1.572 1.022-.3 1.05C48.407 94 46 95.722 46 97.153c0 .955 7.197 2.983 7.942 2.238.305-.305-.318-1.193-1.385-1.973-1.919-1.403-1.919-1.418.002-1.433 1.067-.009 2.616-.462 3.441-1.008 1.271-.84 1.118-1.292-1-2.962-2.633-2.076-6-2.673-6-1.065m52.25.783c-.687.239-1.25 1.521-1.25 2.85 0 2.671-1.734 3.273-2.638.917-.317-.825-1.155-1.5-1.862-1.5-1.591 0-2.631 2.494-1.869 4.482.423 1.1 1.041 1.229 2.403.5 2.447-1.31 2.966-1.24 2.966.397 0 .758-1.35 1.938-3 2.621-1.828.757-3 1.977-3 3.121 0 3.182 4.015 2.085 5.323-1.454.373-1.008 1.233-1.648 1.911-1.422s1.802-.689 2.499-2.032c2.172-4.186 1.255-9.429-1.483-8.48m9.407 1.013c-.265.429.138 1.898.895 3.267l1.377 2.487.036-2.691c.035-2.671-1.385-4.556-2.308-3.063m7.05 2.007c-.287 1.501-.451 5.321-.364 8.489.145 5.339-.006 5.76-2.073 5.759-1.594-.001-2.811-1.141-4.27-4.001-1.122-2.2-2.304-4-2.625-4s-.413 1.8-.204 4c.21 2.2.069 4-.313 4s-1.37.259-2.197.576c-1.019.392-1.608-.146-1.831-1.671-.428-2.92-2.83-3.758-2.83-.988 0 1.828-.601 2.083-4.918 2.083-2.705 0-5.65.281-6.543.624-1.488.571-1.482.781.073 2.5 1.253 1.384 3.084 1.876 6.984 1.876 2.907 0 5.539-.41 5.849-.912.331-.534 1.782-.451 3.509.201 2.437.92 3.275.814 4.853-.614 1.7-1.539 2.043-1.56 3.172-.2.696.839 2.283 1.525 3.527 1.525 2.57 0 3.459-2.205 3.48-8.633.011-3.286.424-4.241 2.014-4.657 1.456-.381 2-1.364 2-3.616 0-3.463-1.485-4.172-2.29-1.094-.736 2.815-2.71 2.494-2.71-.441 0-3.473-1.671-4.06-2.293-.806m16.692-.003c-.71 2.528-2.399 3.056-2.399.75 0-.825-.486-1.5-1.079-1.5-.705 0-.965 2.586-.75 7.46.32 7.253.262 7.468-2.094 7.75-1.332.16-2.597.822-2.811 1.472-.604 1.842 3.244 3.435 5.91 2.446 2.071-.768 2.324-1.502 2.324-6.745 0-4.127.368-5.81 1.232-5.639 1.709.339 2.681-4.205 1.374-6.422-1.004-1.703-1.115-1.675-1.707.428m-56.976.375c-.383.619-.696 2.813-.696 4.875s.313 4.256.696 4.875c1.28 2.072 2.577 1.154 2.577-1.825 0-1.623.62-3.31 1.378-3.75.967-.561 1.126-1.472.533-3.05-.899-2.389-3.33-2.999-4.488-1.125M151 96.741c0 1.728-.457 3.424-1.016 3.769-1.524.942-.152 2.49 2.206 2.49 1.827 0 2.001-.433 1.477-3.664-.804-4.953-2.667-6.766-2.667-2.595m54.25.848c-2.391 1.042-3.25 2.061-3.25 3.855 0 1.341.45 2.716 1 3.056.561.347 1-.441 1-1.796 0-1.835.738-2.629 3.075-3.309 1.692-.492 3.076-1.334 3.075-1.87 0-1.501-1.35-1.483-4.9.064m-160.122 3.756c-.614.74-1.389 2.711-1.723 4.379-.58 2.902-.44 3.055 3.244 3.524 2.118.27 4.279.099 4.801-.379.573-.524.275-.869-.75-.869-.935 0-1.7-.675-1.7-1.5 0-.833.889-1.5 2-1.5 1.17 0 2-.667 2-1.607 0-.981-.556-1.394-1.427-1.059-.785.301-1.965-.101-2.622-.893-1.488-1.793-2.395-1.816-3.823-.096m37.884.632c-.844 1.578-.771 1.868.364 1.432 2.029-.779 3.035 1.391 1.501 3.239-2.291 2.76-5.824 3.525-8.988 1.946-3.282-1.637-3.701-.793-1.139 2.292 4.59 5.529 13.25 2.419 13.25-4.759 0-5.508-2.948-7.961-4.988-4.15M46.158 105c0 1.375.227 1.938.504 1.25.278-.687.278-1.812 0-2.5-.277-.687-.504-.125-.504 1.25m105.051 2.875c.206 1.087 1.463 1.683 3.799 1.8 1.921.097 2.671-.055 1.669-.337-1.003-.282-1.602-1.092-1.33-1.8.321-.836-.372-1.288-1.976-1.288-1.739 0-2.379.481-2.162 1.625m-108.791 3.477c-.312.814-.421 2.755-.243 4.314.274 2.385.84 2.884 3.576 3.147 2.728.263 3.411-.109 4.25-2.315 1.326-3.489 1.26-4.752-.223-4.257-.673.224-1.551 1.499-1.953 2.833l-.73 2.426.176-2.5c.227-3.232-1.553-3.807-2.502-.809-.638 2.014-.687 1.954-.385-.465.379-3.026-1.052-4.755-1.966-2.374m163.514.774c-.839 1.568-.846 2.767-.028 4.563.899 1.972 1.727 2.377 4.345 2.124 3.489-.338 4.4-2.091 3.321-6.392-.813-3.239-5.956-3.437-7.638-.295m2.583 1.239c-2.094 1.531-1.262 3.635 1.437 3.635 2.296 0 3.355-2.5 1.657-3.91-.907-.752-1.797-.673-3.094.275m-51.955 3.385c.07 1.513.198 4.138.284 5.833.099 1.961.686 3.084 1.612 3.084.801 0 1.253-.329 1.005-.73-.248-.402-.168-2.795.178-5.319.578-4.214.822-4.54 2.995-3.995 1.422.357 2.366.152 2.366-.515 0-.638-1.815-1.108-4.284-1.108-4.038 0-4.276.158-4.156 2.75m-41.56-.368c0 .825.45 1.778 1 2.118s1-.057 1-.882-.45-1.778-1-2.118-1 .057-1 .882m-12.373 2.368c.366 1.513 1.05 3.792 1.519 5.065 1.128 3.059 1.103 3.185-.646 3.185-.825 0-1.5-.675-1.5-1.5s-.627-1.5-1.393-1.5-1.652.675-1.969 1.5c-.639 1.665-3.638 2.077-3.638.5 0-.55-.675-1-1.5-1s-1.5.434-1.5.965c0 1.338 3.826 3.261 5.021 2.522.538-.333.979-.114.979.485 0 1.833-2.997 2.367-5.566.993-2.548-1.364-4.101-.854-2.971.976 1.174 1.899 6.58 4.18 8.479 3.577 1.013-.321 2.089-1.529 2.391-2.683.42-1.606 1.079-1.96 2.806-1.509 2.654.694 4.861-.834 4.861-3.366 0-.987-.884-3.856-1.964-6.377-2.167-5.054-4.491-6.304-3.409-1.833M121 117.5c0 .825.45 1.5 1 1.5s1-.675 1-1.5-.45-1.5-1-1.5-1 .675-1 1.5m26.458-.252c-.844 2.2-.167 6.768 1.042 7.033 1.37.3 1.897-6.284.606-7.575-.72-.72-1.227-.553-1.648.542m75.913-.544c.388.388 1.925.822 3.417.965 2.338.224 2.436.137.712-.634-2.434-1.088-5.1-1.302-4.129-.331M92 118.835c0 1.101-.261 2.68-.579 3.51-.438 1.142-.06 1.373 1.554.951 1.59-.416 2.055-1.204 1.829-3.1-.366-3.06-2.804-4.244-2.804-1.361m71.701.174c-3.59 3.495.816 10.831 5.759 9.59 1.397-.35 2.54-1.087 2.54-1.637s-1.053-.736-2.34-.413c-3.228.81-6.259-3.561-4.609-6.645 1.452-2.713.896-3.081-1.35-.895m-53.506 3.491c.02 1.65.244 2.204.498 1.231s.237-2.323-.037-3-.481.119-.461 1.769m98.555-.811c-.963.252-1.75.861-1.75 1.353s.675.636 1.5.32c.922-.354 1.5.002 1.5.924 0 .825-.675 1.759-1.5 2.076-2.798 1.073-1.517 2.351 2.25 2.244 3.589-.101 3.763-.267 4.06-3.856.279-3.367.075-3.738-2-3.634-1.27.064-3.097.322-4.06.573m2.941 2.002c-.307.497-.195 1.494.25 2.214.445.719 1.061.901 1.368.404s.195-1.494-.25-2.214c-.445-.719-1.061-.901-1.368-.404m-5.053 9.809c-.316.825-.139 1.5.393 1.5.533 0 .969-.421.969-.937 0-.515 1.463-1.118 3.25-1.34l3.25-.403-3.643-.16q-3.642-.16-4.219 1.34m-73.138 2.224c-.494 1.198-.885 1.369-1.2.526-.773-2.069-3.3-1.406-3.3.867 0 1.624.465 1.995 2.001 1.593 1.101-.288 1.75-.115 1.441.383-.308.499-1.271.907-2.141.907-.869 0-2.178.787-2.909 1.75-1.265 1.667-1.33 1.667-1.36 0-.032-1.756-2.032-2.564-2.032-.821 0 1.171-2.855 4.071-4.009 4.071-.476 0-.613-1.555-.304-3.456.308-1.901.191-4.264-.261-5.25-.604-1.318-.969-.467-1.374 3.206-.377 3.414-.971 4.913-1.875 4.726-.857-.178-1.209.525-1 2 .263 1.851 1.045 2.333 4.205 2.592 2.135.175 4.333-.133 4.885-.685.67-.67 1.707-.541 3.127.39 1.188.778 3.594 1.206 5.456.971 1.966-.249 4.286.205 5.664 1.107 2.982 1.954 9.986 1.533 9.986-.601 0-1.056-.889-1.426-3-1.25-2.426.203-5.448-.661-8.331-2.381-.182-.109.2-1.19.849-2.402l1.179-2.204 1.152 2.289c2.217 4.411 3.651 3.489 3.651-2.346 0-6.386-1.597-8.527-5-6.706-1.545.827-2.489.839-3.447.044-.995-.826-1.5-.658-2.053.68m-10.289 1.881c-1.429 1.546-.464 1.842 1.646.505.746-.473.971-1.094.5-1.38s-1.437.108-2.146.875M42 141.96c0 1.6.411 3.991.913 5.312.867 2.278 1.143 2.348 5.391 1.363 2.749-.638 4.302-1.498 4.022-2.227-.25-.653-1.326-.959-2.391-.681-2.299.601-2.55-.972-.435-2.727 2.093-1.737 1.874-3.253-.368-2.542-1.027.326-3.052.143-4.5-.408-2.469-.939-2.632-.82-2.632 1.91m174.443.79c-1.246 7.208-5.713 20.705-8.674 26.205-6.42 11.925-16.948 24.156-27.769 32.259-6.176 4.625-19.701 10.753-29.74 13.474-8.324 2.256-11.821 2.651-23.76 2.682-9.084.023-12.595.296-10 .775 6.718 1.242 19.848.937 28.246-.656 27.772-5.268 51.877-23.577 64.497-48.989 4.424-8.909 7.46-17.779 8.331-24.345.783-5.903-.153-7.065-1.131-1.405m-9.55.606c1.512 1.838 1.529 1.793-1.393 3.555-1.1.663-1.325 1.027-.5.809s1.997.28 2.605 1.105c1.521 2.064 4.197.814 4.985-2.329.789-3.142.65-3.3-3.663-4.154-3.135-.621-3.308-.535-2.034 1.014M45 145c0 1.1.408 2 .906 2s.671-.9.384-2-.696-2-.907-2c-.21 0-.383.9-.383 2m127.733-.876c.679.684 1.486.991 1.793.683.308-.308-.247-.867-1.233-1.243-1.425-.542-1.54-.428-.56.56m-44.464.569c.973.254 2.323.237 3-.037s-.119-.481-1.769-.461-2.204.244-1.231.498M209 146c0 1.1.45 2 1 2s1-.9 1-2-.45-2-1-2-1 .9-1 2m-16.921.583c.048 1.165.285 1.402.604.605.289-.722.253-1.585-.079-1.917s-.568.258-.525 1.312m-135.046 1.045c-.035 2.236 2.819 9.854 3.453 9.219.203-.202-.484-2.839-1.526-5.858s-1.909-4.531-1.927-3.361M.441 178.5c.001 15.95.139 22.335.307 14.189s.168-21.196-.001-29C.579 155.885.441 162.55.441 178.5m202.809-26.771c-2.277.797-1.295 2.002 1.238 1.518 3.09-.591 4.504 2.19 2.256 4.438-1.373 1.372-1.755 1.304-3.728-.669-1.819-1.819-2.139-1.899-1.857-.464.981 4.989 7.341 4.082 7.341-1.046 0-2.821-2.612-4.7-5.25-3.777m-110.5 4.746c.682 3.564 2.481 4.394 2.077.959-.18-1.529-.831-2.945-1.446-3.147-.707-.231-.939.574-.631 2.188m47.793.456c-.317.512-.118 1.213.441 1.559s1.016-.074 1.016-.931c0-1.757-.6-2.015-1.457-.628M55.5 161c-.34.55-2.215 1-4.167 1-3.331 0-3.509.162-2.892 2.621.362 1.441 1.27 3.233 2.019 3.982s1.548 1.922 1.776 2.606c.243.729 2.148 1.246 4.59 1.246 4.223 0 5.42.853 2.674 1.907-.825.316-1.5 1.094-1.5 1.729 0 .811.465.768 1.563-.143 1.369-1.137 1.48-.966.891 1.377-.708 2.824.339 3.482 2.346 1.475 1.691-1.691 1.5-3.294-.221-1.865-1.167.968-1.325.81-.884-.878.711-2.716 1.722-2.595 3.713.443 1.33 2.03 1.375 2.5.237 2.5-.77 0-1.96.675-2.645 1.5-1.578 1.901-.102 1.892 2.418-.015 1.535-1.161 2.222-1.205 3.442-.218 1.758 1.422 1.345.605-2.662-5.267-1.313-1.925-3.701-6.088-5.307-9.25-2.857-5.626-4.147-6.763-5.391-4.75m134.949 3.75c-1.508 2.613-4.701 7.072-7.095 9.909s-4.334 5.988-4.309 7c.082 3.396 13.948-13.588 16.254-19.909 1.381-3.787-2.219-1.56-4.85 3m-146.788-3.011c-.6.971 6.737 14.771 8.4 15.799.582.359-.821-3.102-3.118-7.692-4.801-9.596-4.575-9.25-5.282-8.107M93 164c0 .55.45 1 1 1s1-.45 1-1-.45-1-1-1-1 .45-1 1m74.636-.22c-.338.546.056 1.549.875 2.229 1.626 1.35 1.965.291.599-1.866-.523-.824-1.101-.967-1.474-.363m-114.532 1.134c-2.085 1.321-.561 4.366 1.808 3.614 1.581-.502 1.823-.23 1.362 1.532-.444 1.699-.171 2.067 1.322 1.779 2.662-.512 2.891-3.352.465-5.778-2.288-2.288-2.923-2.435-4.957-1.147M199 167.532c0 4.013.935 4.403 2.924 1.218 1.745-2.793 1.706-2.973-.85-3.918-1.847-.684-2.074-.389-2.074 2.7m-155.921.051c.048 1.165.285 1.402.604.605.289-.722.253-1.585-.079-1.917s-.568.258-.525 1.312m72.412.431c-.394.638-1.744.888-3.039.563-1.281-.321-2.609-.133-2.95.419-.786 1.272 4.471 1.306 6.469.043.809-.512 1.192-1.21.85-1.551-.341-.342-.94-.105-1.33.526M155.5 169c-.34.55.11 1 1 1s1.34-.45 1-1-.79-1-1-1-.66.45-1 1m-50.5 1.811c0 1.599-.607 2.193-2.25 2.204-1.819.013-1.963.201-.75.985 1.954 1.263 5.715 1.271 6.492.013.336-.543-.313-1.978-1.441-3.189L105 168.623zm90.2.389c-1.645 1.645-1.523 3.313.142 1.931.738-.612 1.638-.818 2-.456s.658-.092.658-1.008c0-1.961-1.12-2.147-2.8-.467m-20.961 4.056c-3.639 3.709-5.346 6.744-3.791 6.744 1.059 0 6.027-5.327 5.777-6.195-.151-.524.19-.667.757-.316 1.121.693 2.426-1.765 1.852-3.488-.195-.585-2.263.879-4.595 3.255m24.428-2.589c-.367.366-.667 1.131-.667 1.7 0 .626.466.567 1.183-.15.651-.651.951-1.416.667-1.7s-.817-.217-1.183.15m-2.974 1.692c-.333.867-.145 1.861.417 2.209 1.557.962 2.189-.212 1.131-2.102-.842-1.505-1.008-1.516-1.548-.107m-4.693 3.14c-.914 1.103-.997 1.904-.27 2.631.726.726 1.249.713 1.716-.043.37-.598.169-1.087-.446-1.087s-.804-.508-.421-1.128c.941-1.523 2.752 1.704 1.901 3.386-.346.683.086.36.959-.718.874-1.077 1.432-2.427 1.242-3-.571-1.713-3.273-1.737-4.681-.041m-136.09 4.333c.54 1.008 1.766 2.47 2.727 3.25 1.08.878.838.179-.634-1.832-2.626-3.588-3.611-4.255-2.093-1.418m134.09-.423c0 .19.675.906 1.5 1.591.865.718 1.5.815 1.5.229 0-.558-.675-1.274-1.5-1.591s-1.5-.419-1.5-.229m-4.8 3.791c-.66.66-1.2 1.785-1.2 2.5s-.81 1.3-1.8 1.3c-3.135 0-4.407 2.114-2.524 4.194 1.516 1.676 1.791 1.694 3.419.22.992-.898 1.505-2.292 1.168-3.172-.396-1.032-.205-1.324.559-.852.639.395 1.953.258 2.92-.305 1.08-.629 1.253-1.036.449-1.055-.732-.017-.994-.539-.596-1.185.446-.721.274-.882-.457-.43-.644.398-.872 1.255-.508 1.904.485.864.313.856-.641-.027-1.061-.982-1.065-1.495-.024-2.75 1.512-1.821.961-2.068-.765-.342m-113.7.8c.34.55.816 1 1.059 1s.441-.45.441-1-.477-1-1.059-1-.781.45-.441 1m2.5 3.5c-.993 1.197-.993 1.803 0 3 2.643 3.185 5.971 1.027 3.793-2.459-1.521-2.436-2.146-2.525-3.793-.541m.694 1.139c-.799.799.104 2.361 1.365 2.361.518 0 .941-.675.941-1.5 0-1.546-1.18-1.987-2.306-.861m106 0c-.799.799.104 2.361 1.365 2.361.518 0 .941-.675.941-1.5 0-1.546-1.18-1.987-2.306-.861M65.5 193.919c1.1 1.263 3.35 3.233 5 4.378l3 2.081-2-2.297c-1.1-1.263-3.35-3.233-5-4.378l-3-2.081zm12.487.633c-1.368.758-1.812 1.361-.987 1.342 2.448-.057 5.443-1.502 4.421-2.134-.52-.321-2.065.035-3.434.792m94.263.11c-2.06.831-1.501 4.338.691 4.338 2.507 0 3.651-1.836 1.628-2.612-.857-.329-1.309-1-1.004-1.493.601-.972.543-.982-1.315-.233m.483 2.462c.679.684 1.486.991 1.793.683.308-.308-.247-.867-1.233-1.243-1.425-.542-1.54-.428-.56.56m-6.076 1.138c-1.551 1.134-1.574 1.463-.223 3.25.831 1.099 1.517 1.429 1.534.738.018-.687.665-1.25 1.438-1.25.914 0 1.224-.7.884-2-.61-2.331-1.271-2.465-3.633-.738M85 199.5c0 .825.177 1.5.393 1.5s.652-.675.969-1.5.139-1.5-.393-1.5c-.533 0-.969.675-.969 1.5m-11 .878c0 .207.787.995 1.75 1.75 1.586 1.243 1.621 1.208.378-.378-1.307-1.666-2.128-2.195-2.128-1.372m87.25.284c-1.541.622-1.647 3.975-.154 4.897 1.597.987 4.089-1.914 3.334-3.881-.667-1.738-1.07-1.867-3.18-1.016m.441 1.029c-.307.497-.195 1.494.25 2.214.445.719 1.061.901 1.368.404s.195-1.494-.25-2.214c-.445-.719-1.061-.901-1.368-.404m-5.38 2.229c-.442 1.69-.841 1.885-1.957.959-1.943-1.613-2.58-.627-1.439 2.226.527 1.317.987 1.847 1.022 1.176.034-.67.738-.959 1.563-.643.825.317 1.5.092 1.5-.5 0-.591.642-.829 1.427-.528 1.044.401 1.28-.014.879-1.547-.789-3.016-2.35-3.612-2.995-1.143M97 205.902c0 1.038 1.902 2.541 2.466 1.948.183-.192-.297-.93-1.067-1.639-.769-.71-1.399-.849-1.399-.309m8.118-.152c.35 2.215-.297 3.131-1.868 2.643-1.515-.471-1.501-.385.106.64 1.479.945 2.162.878 3.368-.328.832-.832 1.208-2.006.835-2.609-.763-1.235-2.623-1.499-2.441-.346m42.34.318c-.363.588-1.29.827-2.059.532-1.608-.617-1.821 1.2-.399 3.4.807 1.248.985 1.164 1.064-.5.051-1.1.321-1.437.598-.75.278.688 1.48 1.243 2.671 1.235 1.766-.013 1.889-.195.667-.985-1.333-.862-1.333-.973 0-1 1.229-.025 1.254-.187.137-.894-1.151-.729-1.151-.948 0-1.406.976-.388.882-.565-.328-.621-.93-.043-1.988.402-2.351.989M83 207c.825.533 1.95.969 2.5.969s.325-.436-.5-.969-1.95-.969-2.5-.969-.325.436.5.969m28.667-.333c-.367.366-.667 1.443-.667 2.393 0 2.07 2.925 3.415 4.343 1.997.679-.679 1.443-.65 2.333.089.972.806 1.324.784 1.324-.083 0-.649.403-.932.895-.628.493.305 1.16-.136 1.483-.979.719-1.871-2.074-3.16-3.581-1.653-.758.758-1.486.651-2.504-.367-1.573-1.573-2.604-1.792-3.626-.769m29.982 1.568c-.578 2.209-.602 2.212-2.085.25-.825-1.092-1.5-1.535-1.5-.985s.678 1.898 1.507 2.995c1.294 1.712 1.642 1.783 2.453.5.928-1.467 1.346-4.995.593-4.995-.211 0-.647 1.006-.968 2.235m-15.991-.56c-1.04 1.041-.765 5.325.342 5.325.55 0 1-.54 1-1.2 0-.933.267-.933 1.2 0 1.7 1.7 2.795 1.488 2.83-.55.029-1.667.079-1.667 1.05 0 1.261 2.164 3.264 2.245 4.962.2 1.768-2.131-1.03-5.094-3.714-3.933-2.483 1.073-4.61 1.166-5.92.257-.601-.416-1.388-.461-1.75-.099m-13.466 1.4c.197.591.785 1.075 1.308 1.075s1.111-.484 1.308-1.075S114.417 208 113.5 208s-1.505.484-1.308 1.075M133 210c0 .55.675 1 1.5 1s1.5-.45 1.5-1-.675-1-1.5-1-1.5.45-1.5 1m-42 .909c2.153 1.576 16.696 6.106 19.302 6.012 1.209-.043 1.748-.224 1.198-.401s-4.943-1.509-9.763-2.958c-4.819-1.449-9.544-2.886-10.5-3.193-1.475-.474-1.511-.392-.237.54M.426 234.5c.001 12.1.145 16.913.321 10.695s.175-16.118-.001-22c-.177-5.882-.321-.795-.32 11.305"/><path fill="#1976D2" fill-opacity=".648" fill-rule="evenodd" d="M0 47.608v47.609l2.25-.534c1.238-.294 4.95-.823 8.25-1.176 7.057-.754 19.258-2.94 28.775-5.157l6.775-1.578 4.606-7.136C60.475 64.422 72.328 53.658 87.5 46.177c9.698-4.782 15.495-6.693 26-8.569 4.4-.786 6.789-1.469 5.309-1.518-1.48-.05-3.012-.61-3.404-1.245-.444-.717-.275-.882.448-.436.655.405 1.432.012 1.783-.903.342-.892 1.239-1.384 1.993-1.095.786.302 1.371-.114 1.371-.974 0-.825.686-1.763 1.526-2.085 1.189-.457 1.268-.895.357-1.993-1.61-1.94-.463-2.796 1.336-.997 1.717 1.717 4.446.523 3.245-1.42-.587-.951-.298-1.085 1.122-.52 1.053.419 2.814.892 3.914 1.052 1.1.159 2.787.616 3.75 1.015 1.081.448 1.75.279 1.75-.441 0-.641.526-.841 1.17-.443q1.172.726.544-.909c-.345-.898-.196-1.898.33-2.223s1.012-.114 1.081.468.196 1.622.283 2.309c.088.688-.306 1.581-.875 1.985-.638.454-.49.74.388.75.782.008 2.252.767 3.267 1.685 1.249 1.131 3.448 1.634 6.805 1.557 2.728-.062 5.226.319 5.552.847.326.527 1.012.7 1.524.383s.931.127.931.984.436 1.559.969 1.559.709-.675.393-1.5c-.326-.849-.024-1.5.698-1.5.7 0 .977.296.615.658s-.156 1.262.456 2c.724.873.752 1.342.08 1.342-1.596 0-.764 3.122 1.218 4.572.974.712 1.523 1.696 1.22 2.186s1.565 1.881 4.15 3.091c2.586 1.209 3.914 1.576 2.951.815-2.526-1.999-2.15-2.661.75-1.32 1.376.636 2.323 1.631 2.106 2.211-.253.68 2.685 1.135 8.25 1.277 11.348.291 15.829.927 26.644 3.785 5.075 1.341 11.834 2.376 15.5 2.375 5.773-.003 22.716-2.062 28.73-3.49l2.231-.53.29 21.764c.16 11.97.393.501.52-25.486L257 0H0zM.462 48c0 26.125.129 36.813.287 23.75.158-13.062.158-34.437 0-47.5C.591 11.188.462 21.875.462 48M117.5 39.674C97.644 42.152 79.868 50.544 65.975 64 59.365 70.402 50 82.723 50 85.016c0 .389 1.138.489 2.529.223 1.879-.359 2.383-.94 1.963-2.263-.341-1.076.393-2.893 1.854-4.592 2.188-2.543 2.672-2.697 5.068-1.605 2.233 1.017 2.612 1.77 2.408 4.791-.288 4.278-2.993 6.318-5.636 4.249-1.514-1.184-1.546-1.141-.314.431.755.963 2.056 1.75 2.89 1.75 1.858 0 4.163-2.877 4.206-5.25.018-.963.466-1.75.998-1.75.531 0 4.07-3.104 7.864-6.899s9.885-8.785 13.534-11.09c6.492-4.1 7.916-6.331 5.551-8.696-3.36-3.36 2.967-10.119 7.073-7.555 1.76 1.099 2.012 1.011 2.012-.706 0-1.497.891-2.104 3.75-2.553 12.765-2.009 22.446-5.162 11.75-3.827m48.5 3.719c0 .216.698.661 1.552.989.89.341 1.291.173.941-.393-.587-.951-2.493-1.406-2.493-.596m-2.095 4.184c4.073 1.895 7.571 3.281 7.773 3.078.421-.42-13.311-6.689-14.437-6.59-.407.036 2.591 1.616 6.664 3.512M95 50.927c0 1.431.642 2.073 2.073 2.073 2.563 0 2.272-3.31-.334-3.812-1.2-.231-1.739.308-1.739 1.739m7.158.073c0 1.375.227 1.938.504 1.25.278-.687.278-1.812 0-2.5-.277-.687-.504-.125-.504 1.25m-14.908-.282c-.687.247-1.25 1.552-1.25 2.901 0 2.111-.268 2.308-1.928 1.42-1.699-.91-5.072-.522-5.072.582 0 .224 1.013 1.97 2.25 3.88 2.342 3.614 4.498 4.137 3.911.949-.275-1.496-.07-1.619 1.092-.655 1.713 1.422 2.747.611 2.747-2.153 0-1.942.054-1.95 1.347-.182 2.063 2.821 3.017.145 1.201-3.367-1.752-3.389-2.538-4.006-4.298-3.375m8.563 5.965c.721.289 1.584.253 1.916-.079s-.258-.568-1.312-.525c-1.165.048-1.402.285-.604.604m-25.507 5.762L67.5 64.89l3.06 3.096 3.06 3.096 2.69-2.493c3.068-2.844 3.374-4.762 1.119-7.018-2.178-2.177-3.858-1.971-7.123.874M93 64.248c-9.631 4.75-23.247 18.67-28.822 29.465-5.977 11.574-8.312 21.281-8.37 34.787-.037 8.662.418 12.455 2.142 17.847 1.205 3.765 2.367 6.669 2.583 6.453s-.334-2.622-1.224-5.347c-1.16-3.55-1.637-8.918-1.685-18.953-.061-12.819.168-14.675 2.712-22 5.965-17.169 17.418-31.263 32.55-40.055 4.463-2.593 8.114-4.879 8.114-5.08 0-.822-1.819-.166-8 2.883m-21.352-.487c-.259.419.166 1.632.944 2.696 1.052 1.438 1.706 1.645 2.545.806.62-.62.858-1.834.527-2.696-.623-1.624-3.192-2.14-4.016-.806m106.085.363c.679.684 1.486.991 1.793.683.308-.308-.247-.867-1.233-1.243-1.425-.542-1.54-.428-.56.56m-78.727 3.009c-6.633 2.94-18.392 12.153-23.144 18.133-5.006 6.298-11.242 19.015-13.336 27.194-1.848 7.217-1.848 22.113 0 29.04l1.334 5-.68-5c-.374-2.75-.622-9.275-.551-14.5.233-17.117 6.469-30.927 20.258-44.864 3.637-3.676 9.391-8.473 12.787-10.66a2937 2937 0 0 0 8-5.167c2.805-1.83.336-1.394-4.668.824M166 66.364c0 .275 1.35 1.461 3 2.636s3 1.911 3 1.636-1.35-1.461-3-2.636-3-1.911-3-1.636m21.459 1.703c-.363.586-.445 1.281-.183 1.543s.743-.218 1.069-1.067c.676-1.762.1-2.072-.886-.476m-125.013 2.02C61.722 71.259 64.832 79 66.027 79c.398 0 .997-1.371 1.332-3.047.424-2.119 1.117-2.957 2.272-2.75 3.505.627 2.351-2.114-1.319-3.133-4.75-1.319-5.04-1.319-5.866.017M173 71.313c0 .172 1.463 1.635 3.25 3.25l3.25 2.937-2.937-3.25c-2.738-3.029-3.563-3.71-3.563-2.937m14.667 1.354c-1.151 1.15-.729 2.333.833 2.333.825 0 1.5-.675 1.5-1.5 0-1.562-1.183-1.984-2.333-.833M166 73.378c0 .207.787.995 1.75 1.75 1.586 1.243 1.621 1.208.378-.378-1.307-1.666-2.128-2.195-2.128-1.372M173.5 80c2.148 2.2 4.131 4 4.406 4s-1.258-1.8-3.406-4-4.131-4-4.406-4 1.258 1.8 3.406 4m21.202-2.667c-.281.734.078 1.334.798 1.334s1.079-.6.798-1.334c-.282-.733-.641-1.333-.798-1.333s-.516.6-.798 1.333M57.48 80.032c-.388.628-.235 1.613.34 2.188 1.344 1.344 4.477.172 3.93-1.471-.556-1.671-3.386-2.147-4.27-.717m142.77 6.674c-3.048.587-2.862 2.294.25 2.294 1.556 0 2.5-.567 2.5-1.5 0-.825-.113-1.439-.25-1.364s-1.262.331-2.5.57M177 100.382c0 4.125.45 7.778 1 8.118.633.391 1-2.137 1-6.882 0-4.125-.45-7.778-1-8.118-.633-.391-1 2.137-1 6.882m27.076-4.97c-1.65 1.761-1.97 2.583-1 2.573 2.384-.026 4.14-1.629 3.772-3.442-.297-1.467-.702-1.34-2.772.869m-126.469.17c-.901 2.346-.735 8.221.249 8.829.47.291.651-.539.402-1.843-.283-1.481.264-3.09 1.457-4.283C81.763 96.237 81.664 94 79.524 94c-.721 0-1.583.712-1.917 1.582m16.425 1.585c.03 3.161.108 3.232 1.513 1.373 1.619-2.141 1.49-3.695-.357-4.311-.763-.254-1.177.798-1.156 2.938M123.158 96c0 1.375.227 1.938.504 1.25.278-.687.278-1.812 0-2.5-.277-.687-.504-.125-.504 1.25m6.933 5.58c.2 6.861.001 7.867-1.682 8.494-1.842.686-1.844.738-.058 1.464 1.186.483 2.165.252 2.726-.642 1.143-1.822.891-15.798-.298-16.533-.531-.328-.82 2.702-.688 7.217m12.576-6.913c-1.038 1.038-.784 7.523.269 6.872.515-.318.905-1.357.867-2.309-.039-.951.263-2.517.67-3.48.722-1.704-.47-2.419-1.806-1.083m-88.101 1.286c-1.428.519-1.601.907-.662 1.487.698.432 1.764.292 2.366-.31 1.476-1.476.664-2.036-1.704-1.177M85 96.441c0 .857.45 1.559 1 1.559s1-.423 1-.941-.45-1.219-1-1.559-1 .084-1 .941m14.295.007c-.951 1.083-.899 1.49.25 1.931.8.307 1.455.384 1.455.171 0-.212.273-1.098.607-1.968.741-1.931-.662-2.012-2.312-.134m18.906 5.802c-.189 7.301-.331 7.752-2.451 7.78-2.085.029-2.115.11-.404 1.104 2.995 1.741 3.769-.247 3.4-8.729l-.344-7.905zm32.087-2.339c-.951 1.522-.915 2.018.176 2.437.754.289 1.633-.158 1.953-.993 1.387-3.614-.131-4.643-2.129-1.444m42.324.589c4.036 12.224 4.613 15.557 4.669 27 .054 10.875-.237 12.898-3.105 21.585-6.427 19.468-21.754 35.787-41.176 43.841-6.937 2.877-8.791 4.541-4 3.59 6.146-1.219 19.297-8.208 25.774-13.698 15.049-12.756 23.82-30.81 24.942-51.339.638-11.667-.384-17.453-4.677-26.484-1.698-3.572-2.79-5.595-2.427-4.495m-141.799.183c.721.289 1.584.253 1.916-.079s-.258-.568-1.312-.525c-1.165.048-1.402.285-.604.604m117.308.317c-.017.825.587 2.85 1.343 4.5 1.768 3.862 1.794 2.066.036-2.5-.741-1.925-1.362-2.825-1.379-2m38.369.016c-.346.559-.999.787-1.453.507-.453-.28-.76.551-.681 1.848l.144 2.357 2.233-2.114c1.228-1.163 2.24-2.452 2.25-2.864.025-1.104-1.764-.913-2.493.266M85 101.393c0 .216.698.661 1.552.989.89.341 1.291.173.941-.393-.587-.951-2.493-1.406-2.493-.596m10.25 1.269c-.687.278-1.25 1.383-1.25 2.457 0 1.641.318 1.781 2 .881 1.1-.589 2-1.73 2-2.535 0-1.507-.582-1.677-2.75-.803m13.538 2.347c.349 2.376.006 3.669-1.21 4.558-1.186.867-1.352 1.455-.551 1.95 2.541 1.57 4.715-5.12 2.602-8.01-1.182-1.616-1.274-1.45-.841 1.502m91.572-1.513c2.137 5.569 3.827 19.847 3.314 28.004-.745 11.843-2.698 18.984-8.342 30.5-3.993 8.148-6.02 10.858-14.244 19.043-9.783 9.737-17.902 14.914-30.588 19.503-6.122 2.215-5.66 1.873-4.969 3.674.495 1.291 1.108 1.324 4.274.233 2.564-.884 4.078-.957 4.945-.241.915.756 1.25.576 1.25-.673 0-.938.558-1.52 1.241-1.292s1.84-.185 2.571-.917c.732-.731 2.199-1.33 3.259-1.33s1.929-.42 1.929-.933 1.012-1.241 2.25-1.618 3.021-1.362 3.963-2.189c2.288-2.008 5.561-.898 3.758 1.275-1.057 1.274-.957 1.416.638.906 1.804-.576 1.801-.531-.057.982-1.105.9-2.835 1.34-4 1.016-1.65-.458-1.758-.364-.552.48 1.395.977.699 1.544-1.408 1.147-.5-.095-1.287.415-1.75 1.131-.677 1.048-1.056 1.009-1.936-.197-.929-1.274-1.011-1.238-.538.235.766 2.384-2.916 4.385-4.955 2.693-1.171-.972-1.352-.932-.916.204.574 1.495-5.043 4.267-6.644 3.277-.469-.29-.853-.103-.853.415 0 1.478-3.696 2.069-5.062.81-.929-.856-1.058-.827-.526.116.433.767.104 1.25-.853 1.25-.857 0-1.559-.536-1.559-1.191s-.626-.335-1.392.712c-1.134 1.551-1.668 1.674-2.883.666-1.198-.995-1.598-.96-2.035.179-.432 1.124-2.566 1.34-10.367 1.049-5.403-.202-11.252-.366-12.998-.365s-3.412-.381-3.702-.85c-.917-1.484.55-5.2 2.053-5.2.793 0 1.188-.412.877-.915s0-1.108.691-1.345-1.444-1.217-4.744-2.178c-11.882-3.463-25.222-10.613-33.5-17.957l-3.5-3.105 3.488 3.794c2.032 2.209 3.076 4.088 2.5 4.5-.543.388-.988 1.6-.988 2.692 0 2.501-3.093 3.189-5.324 1.185-.922-.827-2.886-1.429-4.365-1.338l-2.688.167 2.188 2.358c6.413 6.91 20.898 15.149 34.689 19.731 7.93 2.635 9.607 2.826 25 2.852 18.043.029 22.253-.76 37.088-6.952 15.083-6.296 29.262-18.231 38.344-32.275 6.409-9.911 12.441-23.489 9.675-21.78-.609.376-1.107.256-1.107-.268s.631-1.194 1.402-1.49c2.917-1.119 5.573-23.72 4.137-35.206l-.737-5.904-1.302 3.097c-1.606 3.819-2.935 4.696-5.967 3.935-1.939-.487-2.82-2.089-5.003-9.094-1.458-4.677-2.897-8.504-3.197-8.504s-.289.673.027 1.496m-58.054 2.285c.503 2.516.244 3.104-1.585 3.582-1.665.435-1.908.85-1.021 1.737 1.951 1.951 4.3.242 4.3-3.128 0-1.805.416-2.833 1-2.472.55.34 1 .382 1 .094s-.967-1.041-2.148-1.673c-2.019-1.081-2.112-.969-1.546 1.86m19.021-.531c-.436.688-1.475 2.6-2.309 4.25-1.164 2.3-2.37 3.117-5.171 3.5l-3.653.5 2.413 1.805c2.045 1.529 2.5 1.581 2.976.34.309-.806 1.647-1.737 2.974-2.07 1.462-.367 2.658-1.584 3.036-3.09.343-1.367 1.025-2.485 1.515-2.485.491 0 .892-.9.892-2 0-2.242-1.468-2.654-2.673-.75M49.5 106c-.34.55.11 1 1 1s1.34-.45 1-1-.79-1-1-1-.66.45-1 1m33.998 2.647c-1.162.863-3.401 1.326-5.35 1.107-2.971-.333-3.148-.227-1.559.935 2.785 2.036 7.168 1.634 8.457-.775 1.446-2.702.942-3.115-1.548-1.267m17.517-.397c-.012 1.455-.952 1.75-5.574 1.75-3.451 0-5.325.379-4.941 1 .902 1.46 10.064 1.231 11.32-.284.676-.813.726-1.82.138-2.75-.776-1.226-.93-1.18-.943.284m50.985.25c.685.825 1.565 1.5 1.956 1.5s.711-.675.711-1.5-.88-1.5-1.956-1.5c-1.625 0-1.745.254-.711 1.5m15.19 2.118c.89.89 2.111 1.314 2.714.941 1.986-1.227 1.143-2.559-1.618-2.559-2.501 0-2.587.127-1.096 1.618M46 110.383c0 .211 1.125.599 2.5.862s2.5.09 2.5-.384c0-.473-1.125-.861-2.5-.861s-2.5.173-2.5.383m172.079 2.2c.048 1.165.285 1.402.604.605.289-.722.253-1.585-.079-1.917s-.568.258-.525 1.312m-44.49.274c-.78 1.261 7.289 5.143 10.692 5.143 1.588 0 3.06-.768 3.676-1.919 1.306-2.441-.357-3.134-4.116-1.715-2.585.976-3.139.844-8.999-2.137-.362-.184-.926.098-1.253.628M208 115c0 2.202.124 2.273 2.418 1.393 2.266-.87 1.955-3.393-.418-3.393q-2 0-2 2m11.236 11.5c-.084 18.345-3.688 31.955-12.694 47.95-10.643 18.899-31.984 35.339-54.251 41.791-6.646 1.926-10.142 2.257-23.791 2.254-17.433-.005-22.455-.914-35.802-6.484-10.242-4.275-20.745-11.5-29.838-20.525-4.323-4.292-7.86-7.267-7.86-6.613s.644 1.437 1.43 1.739c1.088.417 3.57 5.229 3.57 6.921 0 .128-.9.469-2 .757-1.145.299-2.007.028-2.015-.634-.01-.725-.336-.65-.875.201-.604.952-1.065 1.025-1.548.243-.379-.613.024-1.388.895-1.722 1.197-.459.712-1.076-1.986-2.521-1.963-1.053-3.957-1.675-4.43-1.382-1.125.695-4.158-.476-3.595-1.388.24-.387-1.676-.56-4.255-.385-3.611.245-4.346.064-3.191-.786 1.239-.913 1.166-.996-.42-.476-1.095.358-2.294.076-2.792-.656-.673-.991-.835-.942-.711.216.319 2.988-.107 4-1.684 4-.968 0-1.393-.558-1.069-1.402.841-2.19-.482-2.758-1.937-.832-1.199 1.586-1.277 1.548-.917-.458.307-1.712.024-2.055-1.289-1.563-1.482.555-1.514.424-.268-1.107 1.286-1.58 1.174-1.693-1.25-1.253-1.465.265-2.663.062-2.663-.451 0-.514-.505-.934-1.122-.934-.78 0-.745.455.113 1.489.68.819 1.635 1.242 2.122.941.488-.301.887-.312.887-.024s-.906 1.009-2.014 1.602c-1.529.818-1.951.777-1.75-.17.145-.686-.261-1.268-.903-1.293-.641-.025-1.504-.383-1.916-.795-1.261-1.261-1.984-.845-2.141 1.23-.082 1.089.342 2.284.942 2.655.649.401.805.211.385-.469-.457-.739-.16-.933.839-.55 1.808.694 1.098 2.384-1.001 2.384-1.65 0-1.929 1.58-.441 2.5.55.34 1 .19 1-.334 0-1.461 2.847-2.222 3.622-.968.392.633.236.832-.363.462-.577-.357-1.286-.033-1.574.719-.299.779.499 1.916 1.852 2.641 1.871 1.001 2.173 1.653 1.42 3.06-1.152 2.152-1.213 2.973-.207 2.766.412-.085 2.535.637 4.718 1.604 3.628 1.608 3.814 1.871 2.176 3.069-.985.72-7.819 3.261-15.185 5.645L.065 213.5l-.033 21.25L0 256h127.941c81.481 0 128.158-.352 128.54-.969.329-.533.284-25.958-.102-56.5-.559-44.402-.959-55.531-1.994-55.531-.711 0-8.791 2.273-17.955 5.051s-16.782 4.915-16.928 4.75.398-2.776 1.21-5.801c2.166-8.064 1.959-18.075-.6-29-.583-2.486-.836-.024-.876 8.5m-58.569-9.833c-.367.366-.667 2.841-.667 5.5 0 3.191-.425 4.838-1.25 4.848-.83.01-.746.335.25.964 2.256 1.427 4.821-1.435 3.369-3.76-.6-.961-.878-3.204-.617-4.983.471-3.209.199-3.854-1.085-2.569m-33.198 1.383c-.918 1.486-.188 2.012 1.417 1.021.859-.532.962-1.047.29-1.462-.571-.353-1.339-.154-1.707.441m13.646 2.5c-.128 4.506-1.495 6.442-4.565 6.465-1.69.013-1.787.186-.55.985 4.461 2.883 7.308-.681 5.997-7.506l-.767-3.994zm6.568-2.9c-.989.99-.839 5.136.21 5.784 1.198.74 2.455-4.486 1.346-5.595-.48-.48-1.18-.565-1.556-.189M47 119.5l-2.5 1.429 2.75.036c1.794.023 2.75-.487 2.75-1.465 0-1.789.129-1.789-3 0m108 .811c0 3.687-3.704 6.959-7.282 6.434-2.746-.403-2.856-.319-1.181.906 2.468 1.804 5.963 1.706 7.892-.222 1.415-1.416 2.325-9.429 1.071-9.429-.275 0-.5 1.04-.5 2.311m-63 .13c0 .793.45 1.719 1 2.059s1-.309 1-1.441S93.55 119 93 119s-1 .648-1 1.441m73.638.059c-.316.825-.302 2.213.033 3.084.489 1.275.772 1.324 1.453.25 1.119-1.766 1.109-4.834-.017-4.834-.491 0-1.152.675-1.469 1.5M121 122.918c0 2.418.999 5.082 1.906 5.082.381 0 .509-1.575.284-3.5-.426-3.65-2.19-4.924-2.19-1.582m85-.418c0 .873.94 1.522 2.25 1.552l2.25.053-2.25 1.569c-1.238.864-2.25 2.19-2.25 2.948 0 1.511 1.578 1.87 2.397.545.283-.459 1.885-.632 3.559-.387 2.971.436 3.044.348 3.044-3.667V121h-4.5c-3.333 0-4.5.389-4.5 1.5m-79 1.122c0 1.329.271 1.398 1.5.378.825-.685 1.5-1.415 1.5-1.622s-.675-.378-1.5-.378-1.5.73-1.5 1.622M212.158 125c0 1.375.227 1.938.504 1.25.278-.687.278-1.812 0-2.5-.277-.687-.504-.125-.504 1.25M99 125.5c0 1.776-2.272 1.94-5.316.383-1.955-1-2.027-.956-.684.419.825.845 2.85 1.685 4.5 1.867 2.472.273 3.056-.065 3.32-1.919.175-1.237-.162-2.25-.75-2.25-.589 0-1.07.675-1.07 1.5m18 0c0 .879-.911 1.5-2.2 1.5-1.513 0-1.878.322-1.167 1.033 1.49 1.49 4.367.081 4.367-2.14 0-1.041-.225-1.893-.5-1.893s-.5.675-.5 1.5m-74 1.906c0 .914.7 1.224 2 .884 1.1-.288 2-.921 2-1.407 0-.485-.9-.883-2-.883s-2 .633-2 1.406m59-.013c0 .949 2.993 1.427 3.527.563.325-.526-.336-.956-1.468-.956s-2.059.177-2.059.393m24 .607c0 .55 1.323 1 2.941 1s3.219-.45 3.559-1c.368-.595-.823-1-2.941-1-1.957 0-3.559.45-3.559 1m40.347 2.463c1.016.77 2.476 1.158 3.244.864 2.167-.832.598-2.331-2.4-2.295-2.521.03-2.574.12-.844 1.431m-73.906.955c2.19 1.785 4.559 2.087 4.559.582 0-.55-.638-1-1.418-1s-2.243-.262-3.25-.582c-1.676-.532-1.667-.447.109 1M121.5 131c.34.55 1.041 1 1.559 1s.941-.45.941-1-.702-1-1.559-1-1.281.45-.941 1m85.107 1.582c-1.754 4.571.514 7.418 5.911 7.418 3.766 0 2.608-2.423-1.345-2.813-4.541-.449-4.26-3.187.327-3.187 3.927 0 4.691-1.448 1.25-2.37-3.712-.995-5.503-.717-6.143.952m-158.528 2.001c.048 1.165.285 1.402.604.605.289-.722.253-1.585-.079-1.917s-.568.258-.525 1.312M118.272 140c0 2.475.195 3.488.434 2.25.238-1.238.238-3.262 0-4.5-.239-1.238-.434-.225-.434 2.25M130 137.559c0 .857.45 1.281 1 .941s1-1.041 1-1.559-.45-.941-1-.941-1 .702-1 1.559M140 141c0 2.2.45 4 1 4s1-1.8 1-4-.45-4-1-4-1 1.8-1 4m-95-2.617c0 .211.901.619 2.001.907 1.101.288 1.75.115 1.441-.383-.538-.871-3.442-1.313-3.442-.524m79.136 2.538c-.075.782-.84 2.2-1.701 3.151-.896.989-1.158 1.981-.613 2.318 1.501.928 3.376-2.046 2.891-4.585-.242-1.268-.502-1.665-.577-.884m5.056 1.154c.197.591.786 1.075 1.308 1.075s1.111-.484 1.308-1.075S131.417 141 130.5 141s-1.505.484-1.308 1.075m75.808.24c0 .846.787 1.749 1.75 2.006 1.503.401 1.442.566-.431 1.172-2.912.94-4.164 3.961-1.335 3.221 1.108-.289 2.266-.118 2.574.38 1.288 2.084 4.279.811 5.357-2.281 1.316-3.773.8-4.434-4.165-5.346-3.007-.553-3.75-.385-3.75.848m-87.85 3.635c.22.66.726 1.166 1.125 1.125 1.196-.124.964-1.495-.325-1.925-.66-.22-1.02.14-.8.8m11.286.154c-.699 1.13.75 1.704 3.564 1.411 3.8-.395 4-.458 3.997-1.265-.004-.99-6.957-1.124-7.561-.146m80.564.455c0 .857.45 1.281 1 .941s1-1.041 1-1.559-.45-.941-1-.941-1 .702-1 1.559m-69.559 2.973c1.068.807 3.093 1.448 4.5 1.424 2.12-.036 1.872-.291-1.441-1.485-4.992-1.798-5.503-1.788-3.059.061m-92.875.362c-.304.491.569.829 1.94.75s2.493-.482 2.493-.894c.001-1.059-3.766-.936-4.433.144m155.991 2.043c-2.376 2.626-2 6.96.693 7.977 2.934 1.108 5.564-.323 6.35-3.456 1.115-4.441-4.091-7.783-7.043-4.521m-23.744 1.746c.721.289 1.584.253 1.916-.079s-.258-.568-1.312-.525c-1.165.048-1.402.285-.604.604m-34.174 1.011c-.351.352-.639 3.579-.639 7.173 0 7.777 1.469 7.123 2.374-1.057.577-5.216-.133-7.718-1.735-6.116m18.431 1.176c-1.326 2.477-1.362 7.131-.07 9.13.723 1.119.973.565.985-2.179.008-2.023.677-4.341 1.487-5.15 1.26-1.26 1.27-1.64.07-2.636-1.106-.918-1.629-.742-2.472.835m39.93-.339c0 2.057 2.99 3.103 4.035 1.412 1.107-1.791.288-2.943-2.094-2.943-1.076 0-1.941.682-1.941 1.531m-101.358 1.219c-.825 2.932-.624 11.136.331 13.511.641 1.594.918-.281.964-6.511.062-8.554-.303-10.524-1.295-7m8.358 3.691c0 3.057.45 5.559 1 5.559s1-2.223 1-4.941-.45-5.219-1-5.559c-.621-.384-1 1.49-1 4.941m8.934.339c-.662 7.35-2.403 9.62-7.376 9.62-2.735 0-3.242.276-2.392 1.3 1.535 1.849 6.232 1.608 8.773-.45 1.923-1.558 2.127-2.572 1.86-9.25l-.299-7.5zm16.417-4.251c-.323.841-.393 4.216-.155 7.5.385 5.323.228 5.971-1.441 5.971-1.03 0-1.595.45-1.255 1s1.491 1 2.559 1c1.769 0 1.941-.753 1.941-8.5 0-8.257-.441-10.12-1.649-6.971m-84.208 2.361c-.946.6-1.021 1.067-.25 1.544 1.269.784 3.107-.1 3.107-1.493 0-1.163-1.072-1.182-2.857-.051m102.078 3.824c-1.5 4.938-4.381 7.286-8.944 7.286-3.95 0-4.441 1.957-.527 2.103 2.135.079 1.521.513-2.75 1.938-3.025 1.01-4.911 1.864-4.191 1.898.776.036 1.003.57.558 1.311-.434.723.035.618 1.114-.25 1.724-1.386 1.823-1.332 1.299.702-.695 2.695 1.226 3.574 3.025 1.386 1.105-1.344 1.136-1.239.202.686-.869 1.792-.777 2.599.438 3.813.847.847 1.993 1.26 2.547.918.555-.343 1.008-.146 1.008.436s.627 1.059 1.393 1.059 1.652.675 1.969 1.5c.316.825.064 1.5-.56 1.5s-.86.275-.523.612 4.349-1.206 8.916-3.428c8.328-4.052 17.717-11.761 21.38-17.556l1.815-2.873-3.195.702-3.195.702-.102-4.33-.103-4.329-.819 3.484c-1.208 5.137-5.399 8.357-10.064 7.731-2.05-.275-4.106-.158-4.57.26-1.021.922-7.342 2.183-7.342 1.465 0-.281.704-1.585 1.565-2.899.931-1.421 1.437-3.938 1.25-6.215l-.315-3.826zm-26.883 3.036c.356 3.207.127 4.25-.933 4.25-.773 0-1.405.45-1.405 1s.9 1 2 1c1.305 0 2-.667 2-1.918 0-1.055.235-2.531.522-3.279s-.193-2.247-1.067-3.332c-1.501-1.862-1.563-1.736-1.117 2.279m-30.378.173c-.584 4.344-2.434 5.003-3.865 1.377l-1.104-2.8.356 2.7c.221 1.671-.183 2.907-1.059 3.243-2.452.941-.293 2.594 2.523 1.932 3.874-.912 4.367-1.657 3.967-5.993l-.359-3.882zm102.594-1.01c-.713 1.154.353 6.102 1.304 6.056.808-.04 4.462-4.997 3.99-5.413-1.177-1.039-4.779-1.476-5.294-.643m-3.877 6.891c-.922 1.02-1.677 2.175-1.677 2.567 0 .689-1.005 2.044-3.849 5.192-1.069 1.183-1.096 1.799-.128 2.965 1.563 1.883 3.36 1.913 2.643.045-.301-.785.111-1.973.916-2.641 1.219-1.012 1.345-.899.754.677-.628 1.67-.514 1.731.977.519.928-.755 1.687-1.993 1.687-2.75 0-.758.398-1.378.885-1.378s1.668-1.195 2.624-2.655c1.537-2.345 1.552-2.582.127-2.036-.917.352-1.509.15-1.374-.47.421-1.925-1.855-1.947-3.585-.035M101.5 176c.34.55 1.604.993 2.809.985 1.781-.013 1.91-.197.691-.985-1.97-1.273-4.287-1.273-3.5 0m-37 6c-.34.55.11 1 1 1s1.34-.45 1-1-.79-1-1-1-.66.45-1 1m21.109 3.667c4.771 4.5 16.323 10.08 22.391 10.815l4.5.545-5.27-1.959c-7.014-2.608-16.977-7.688-20.913-10.662-4.746-3.587-5.128-2.907-.708 1.261m8.391-.975c0 .592 8.225 4.416 8.629 4.012.239-.239-.924-.998-2.584-1.685s-2.791-1.622-2.511-2.075c.28-.452-.4-.754-1.512-.671-1.112.084-2.022.273-2.022.419m89.103 1.116c-.568 1.061-.725 2.237-.348 2.613.376.377-.006.42-.849.097-.848-.326-2.281.239-3.211 1.267-1.388 1.533-1.459 2.155-.411 3.589 1.523 2.082 4.372 1.285 5.245-1.466.333-1.05 1.195-1.908 1.916-1.908s1.928-.759 2.683-1.687c1.191-1.465 1.157-1.607-.254-1.079-1.088.407-1.584.091-1.5-.955.189-2.347-2.092-2.675-3.271-.471M67.5 189c.34.55.816 1 1.059 1s.441-.45.441-1-.477-1-1.059-1-.781.45-.441 1M49 190c.825.533 1.95.969 2.5.969s.325-.436-.5-.969-1.95-.969-2.5-.969-.325.436.5.969m-18.5 1c.34.55 1.041 1 1.559 1s.941-.45.941-1-.702-1-1.559-1-1.281.45-.941 1m43.194-.361c-.799.799.104 2.361 1.365 2.361.518 0 .941-.675.941-1.5 0-1.546-1.18-1.987-2.306-.861m105.859.276a1.116 1.116 0 0 0 .362 1.532c.521.322 1.21.159 1.532-.362a1.116 1.116 0 0 0-.362-1.532 1.116 1.116 0 0 0-1.532.362M30 194c0 .55.45 1 1 1s1-.45 1-1-.45-1-1-1-1 .45-1 1m47.441.468c-1.786 1.351-1.799 1.471-.16 1.5.98.018 2.04.704 2.355 1.526.826 2.151 2.364.815 2.364-2.053 0-2.767-1.705-3.131-4.559-.973M85.2 198.2c-1.724 1.724-1.497 2.571 1.05 3.929 2.05 1.092 2.127 1.049.859-.488-1.206-1.461-1.186-1.608.148-1.096 2.012.772 3.411-1.508 1.621-2.641-1.826-1.157-2.26-1.122-3.678.296m5.18 3.252c-.666 1.736.293 3.548 1.879 3.548.843 0 .848-.293.019-1.122-.617-.617-.884-1.742-.593-2.5s.242-1.378-.109-1.378c-.352 0-.89.653-1.196 1.452m7.077 1.479c.317.512.118 1.213-.441 1.559-1.685 1.041-1.151 2.523 1.234 3.426 2.668 1.009 3.818.371 1.721-.955-1.287-.814-1.284-.93.029-.93.825 0 2.175.436 3 .969 1.09.704 1.142.974.191.985-.72.008-1.031.465-.691 1.015.951 1.538 4.492 1.185 5.143-.513.775-2.02-1.588-4.735-3.652-4.195-.907.237-2.487-.181-3.511-.93-2.133-1.56-3.874-1.808-3.023-.431M113 209c0 .55.477 1 1.059 1s.781-.45.441-1-.816-1-1.059-1-.441.45-.441 1M.426 234.5c.001 12.1.145 16.913.321 10.695s.175-16.118-.001-22c-.177-5.882-.321-.795-.32 11.305M124 213.882c0 .55.45 1.278 1 1.618s1 .168 1-.382-.45-1.278-1-1.618-1-.168-1 .382"/></svg>